<?xml version="1.0" encoding="utf-8"?>
<!-- Generator: Adobe Illustrator 25.4.1, SVG Export Plug-In . SVG Version: 6.00 Build 0)  -->
<svg version="1.1" id="Ebene_1" xmlns="http://www.w3.org/2000/svg" xmlns:xlink="http://www.w3.org/1999/xlink" x="0px" y="0px"
	 viewBox="0 0 151.1 105.9" style="enable-background:new 0 0 151.1 105.9;" xml:space="preserve">
<style type="text/css">
	.st0{fill:#000;}
</style>
<path id="Pfad_6" class="st0" d="M22.2,42.7l0.5-0.9c0-0.1,0.1-0.2,0.2-0.2c0.1,0,0.2,0,0.3,0.1l0.9,0.5c0.1,0.1,0.1,0.1,0.2,0.2
	c0,0.1,0,0.2,0,0.3l-0.5,0.9c-0.1,0.1-0.1,0.2-0.2,0.2c-0.1,0-0.2,0-0.3-0.1l-1-0.7c-0.1,0-0.1-0.1-0.1-0.2
	C22.1,42.9,22.2,42.7,22.2,42.7z M28,41.1l0.5-0.9c0-0.1,0.1-0.2,0.2-0.2c0.1,0,0.2,0,0.3,0.1l0.9,0.5c0.1,0.1,0.1,0.1,0.2,0.2
	c0,0.1,0,0.2,0,0.3l-0.5,0.9c-0.1,0.1-0.1,0.2-0.2,0.2c-0.1,0-0.2,0-0.3-0.1l-1-0.7c-0.1,0-0.1-0.1-0.1-0.2
	C27.9,41.3,28,41.2,28,41.1L28,41.1z M33.8,39.6l0.5-0.9c0-0.1,0.1-0.2,0.2-0.2c0.1,0,0.2,0,0.3,0.1l0.9,0.5
	c0.1,0.1,0.1,0.1,0.2,0.2c0,0.1,0,0.2,0,0.3l-0.5,0.9c-0.1,0.1-0.1,0.2-0.2,0.2c-0.1,0-0.2,0-0.3-0.1l-1-0.7c-0.1,0-0.1-0.1-0.1-0.2
	C33.7,39.7,33.8,39.6,33.8,39.6L33.8,39.6z M55.1,20.7L55.1,20.7l0.1,0.1l0.2-0.1c0.2,0,0.4,0.1,0.4,0.2l0.1,0l0-0.2
	c0.8,0,1.1,0,1.2,0.1l0,0.3l0.1-0.1l0.1,0l0.2,0l0,0.1c0.1,0.4-0.5,2.6-1.9,6.8l-2,7.5l-0.3,1.5c-0.2,0.3-0.6,0.6-1,0.7
	c-1.4,0.1-2.1,0-2.1-0.3c-0.9-0.4-1.6-1.6-2.1-3.4c-0.6,1.1-1,2.3-1.2,3.5c-0.1,1.1-0.5,1.7-1.2,1.9c-0.3,0.1-0.7,0.1-1-0.1
	l-0.1,0.1l-0.1,0c-0.1,0-0.3-0.1-0.6-0.3c-0.4,0.1-1-1-2-3.4c-0.5-1.5-1-3-1.4-4.5L39.7,27c-0.1-0.4,0.3-0.8,1.2-1.2
	c0.7-0.1,1.4,0.1,1.9,0.5l0.3,0.4l0.1,0.5l0.5,3l0.3,1.1l0.2,0.4l0,0.4l0.1,0.1l0,0.4l0.1,0.3l0.2,0.3l0,0.3l0.1,0.4l2.1-4.4
	c0.1,0,0.1-0.7-0.1-1.9l0.4-0.3l0.1-0.2l0.6-0.1l0.2-0.1l0.5-0.2l0.1,0.1l0,0.1L48.6,27l0.4,0l0.1,0l0.2-0.2l0.1,0l0.1,0.1l0.1-0.1
	l0.4-0.1l0.4,0.3c0.2,0,0.2,0,0.3,0.1l-0.3,2.3l0.1,1l0.4,1.4l-0.1,0.1l0.3,0.8l0.1,0c0.5-1.6,1.1-3.3,1.8-4.8
	c0-0.4,0.1-0.6,0.3-0.7L53,26.9l0-0.1c0.2-1.1,0.6-2.2,1.1-3.2c0-0.7,0.2-1.4,0.4-2.1C54.5,21.3,54.7,21,55.1,20.7L55.1,20.7z
	 M54.1,24.6L54.1,24.6l0.1-0.1l0-0.1L54.1,24.6z M53.7,25.5l0.1,0.2l0.1,0L53.7,25.5L53.7,25.5z M61.4,20.6l0.5-0.1
	c0.9-0.3,1.9,0,2.5,0.7l0.1,0.3c-0.2,1-0.4,2.1-0.8,3.1l-1.5,8c-0.1,0.6-0.3,1.1-0.6,1.7l-0.1-0.1l-0.1,0l-0.1,0.4l-0.2,0l0-0.6
	l-0.5,1.6l-0.1,0l-0.1-0.1l0-0.1l0.1-0.1l0-0.2l-0.1,0l-0.1,0.8l-0.2,0l0-0.1l0.1-0.4l-1,1.4L59,36.9l0.1-0.1L59,36.5l-0.2,0.2
	l-0.2-0.1c-0.2-0.7,0.5-5.6,2-14.9C60.7,21.1,60.9,20.7,61.4,20.6L61.4,20.6z M62.7,31.1l0,0.1l-0.1,0L62.7,31.1L62.7,31.1z
	 M72.6,17.4c0,0.1,0.1,0.2,0.3,0.2c0,0,0.1,0,0.1,0l0,0.1l-0.2,0.1l0,0.1c0.2-0.1,0.4,0,0.4,0l0,0.1L73,18.1c0,0.1,0.2,0.2,0.5,0.1
	l0,0.1l-0.2,0.1l0,0.1l0.9-0.2l0.8,0.2l-0.1,0.1l0,0.1c0.2-0.1,0.4,0,0.4,0.1c0,0.2-0.8,0.6-2.5,1.3c-1.2,0.5-2.2,1.1-3.2,2
	l-0.4,1.8l0.1,0c0.7-0.4,1.4-0.6,2.2-0.8l0.2,0.2l-0.2,0.1l0,0.1c0.4-0.1,0.6-0.1,0.6,0l-0.3,0.3l0,0.1l0.1,0l0,0.2
	c0.1,0.2,0.3,0.4,0.7,0.4l0,0.1l0,0.1l0,0.1c0.2-0.1,0.4,0,0.4,0.1l0,0.1c0,0.1-1.4,0.9-4.3,2.4c-0.4,0.1-0.7,1-0.9,2.6l5-2.3l0,0.1
	l0.1,0l0.3-0.2c0.1,0.2,0.3,0.3,0.5,0.3l0.1,0.2c-0.1,0.1-0.3,0.2-0.3,0.3l-0.2,0l0,0.1l0.4-0.1l0,0.2l-0.4,0.1l0.1,0l0,0.1
	l-0.1,0.1c0.7-0.2,1.1-0.2,1.3,0.1l0,0.1c0.3,0,0.4,0,0.4,0.1c-1.3,0.9-2.6,1.7-4.1,2.3c-2.8,1.3-4.1,2.1-4,2.5
	c0,0.3-0.2,0.6-0.5,0.8l-0.1,0L66.1,34l-0.2,0l-0.3,0.2c0-0.1-0.3-0.2-0.8-0.2l-0.2,0.1l-0.1,0l0-0.1l0-0.2l-0.1,0L64.3,34l-0.1,0
	l-0.1-0.1l0-0.1c0-1.6,0.7-6.1,2.1-13.7c-0.1-0.5,0.1-0.9,0.8-1.1l2.9-0.7L72.6,17.4z M86.7,13.6c0,0.1,0.1,0.2,0.3,0.2
	c0,0,0.1,0,0.1,0l0,0.1L86.9,14l0,0.1c0.2-0.1,0.4,0,0.4,0l0,0.1L87,14.3c0,0.1,0.2,0.2,0.5,0.1l0,0.1l-0.2,0.1l0,0.1l0.9-0.2
	l0.8,0.2L89,14.7l0,0.1c0.2-0.1,0.4,0,0.4,0.1c0,0.2-0.8,0.6-2.5,1.3c-1.2,0.5-2.2,1.1-3.2,2l-0.4,1.8l0.1,0
	c0.7-0.4,1.4-0.6,2.2-0.8l0.2,0.2l-0.2,0.1l0,0.1c0.4-0.1,0.6-0.1,0.6,0l-0.3,0.3l0,0.1l0.1,0l0,0.2c0.1,0.2,0.3,0.4,0.7,0.4l0,0.1
	l0,0.1l0,0.1c0.2-0.1,0.4,0,0.4,0.1l0,0.1c0,0.1-1.4,0.9-4.3,2.4c-0.4,0.1-0.7,1-0.9,2.6l5-2.3l0,0.1l0.1,0l0.3-0.2
	c0.1,0.2,0.3,0.3,0.5,0.3l0.1,0.2c-0.1,0.1-0.3,0.2-0.3,0.3l-0.2,0l0,0.1l0.4-0.1l0,0.2l-0.4,0.1l0.1,0l0,0.1l-0.1,0.1
	c0.7-0.2,1.1-0.2,1.3,0.1l0,0.1c0.3,0,0.4,0,0.4,0.1c-1.3,0.9-2.6,1.7-4.1,2.3c-2.8,1.3-4.1,2.1-4,2.5c0,0.3-0.2,0.6-0.5,0.8l-0.1,0
	l-0.5-0.2l-0.2,0l-0.3,0.2c0-0.1-0.3-0.2-0.8-0.2l-0.2,0.1l-0.1,0l0-0.1l0-0.2l-0.1,0l-0.1,0.1l-0.1,0l-0.1-0.1l0-0.1
	c0-1.6,0.7-6.1,2.1-13.7c-0.1-0.5,0.1-0.9,0.8-1.1l2.9-0.7L86.7,13.6z M90.8,12.7l0.5-0.1c0.9-0.3,1.9,0,2.5,0.7l0.1,0.3
	c-0.2,1-0.4,2.1-0.8,3.1l-1.5,8c-0.1,0.6-0.3,1.1-0.6,1.7l-0.1-0.1l-0.1,0l-0.1,0.4l-0.2,0l0-0.6l-0.5,1.6l-0.1,0L90,27.7l0-0.1
	l0.1-0.1l0-0.2l-0.1,0l-0.1,0.8l-0.2,0l0-0.1l0.1-0.4l-1,1.3L88.4,29l0.1-0.1l-0.1-0.2l-0.2,0.2L88,28.8c-0.2-0.7,0.5-5.6,2-14.9
	C90.1,13.2,90.4,12.8,90.8,12.7L90.8,12.7z M92.1,23.2l0,0.1l-0.1,0L92.1,23.2L92.1,23.2z M104.7,8.4l0.5-0.1c0.7-0.2,1.4,0,1.9,0.5
	l0.1,0.2l-0.9,8.3c-0.4,2-0.6,4.1-0.6,6.2l-0.2,0.3l-0.2,0.1l-0.4-0.1l-0.1,0.1l-0.4,0.1l-0.4-0.1l-0.7,0.3l-0.8-0.5l-0.1-0.5
	c0-0.6,0-1.2,0.1-1.7l-3.2-4.2l-1.1-1.7l-0.1,0l-1.3,7.2c-0.2,0.9-0.2,1.8-0.1,2.7l0.1,0.1l0,0.1c0,0.4,0,0.7-0.1,0.7l-0.2,0.1
	l-0.9-0.3l-0.2,0L95,26.1l-0.2,0l-0.1,0.2l-0.1-0.1l-0.1,0l-0.1,0.1l-0.9-0.7l-0.1-0.3c-0.2-0.9,0.2-4,1.3-9.4l0.8-4.4
	c0.7-0.6,1.6-0.9,2.5-1.2c0.3-0.1,0.8,0.1,1.3,0.5l0,0.1c0.4,1.4,1.6,3.4,3.7,5.9c0.5-2.3,0.7-4.6,0.7-6.9c0-0.7,0.2-1.1,0.7-1.2
	C104.3,8.6,104.4,8.5,104.7,8.4z M115.3,5.9c0,0.1,0.1,0.2,0.3,0.2c0,0,0.1,0,0.1,0l0,0.1l-0.2,0.1l0,0.1c0.2-0.1,0.4,0,0.4,0l0,0.1
	l-0.3,0.1c0,0.1,0.2,0.2,0.5,0.1l0,0.1l-0.2,0.1l0,0.1l0.9-0.2l0.8,0.2l-0.1,0.1l0,0.1c0.2-0.1,0.4,0,0.4,0.1c0,0.2-0.8,0.6-2.5,1.3
	c-1.2,0.5-2.2,1.1-3.2,2l-0.4,1.8l0.1,0c0.7-0.4,1.4-0.6,2.2-0.8l0.2,0.2l-0.2,0.1l0,0.1c0.4-0.1,0.6-0.1,0.6,0l-0.3,0.3l0,0.1
	l0.1,0l0,0.2c0.1,0.2,0.3,0.4,0.7,0.4l0,0.1l0,0.1l0,0.1c0.2-0.1,0.4,0,0.4,0.1l0,0.1c0,0.1-1.4,0.9-4.3,2.4c-0.4,0.1-0.7,1-0.9,2.6
	l5-2.3l0,0.1l0.1,0l0.3-0.2c0.1,0.2,0.3,0.3,0.5,0.3l0.1,0.2c-0.1,0.1-0.3,0.2-0.3,0.3l-0.2,0l0,0.1l0.4-0.1l0,0.2l-0.4,0.1l0.1,0
	l0,0.1l-0.1,0.1c0.7-0.2,1.1-0.2,1.3,0.1l0,0.1c0.3,0,0.4,0,0.4,0.1c-1.3,0.9-2.6,1.7-4.1,2.3c-2.8,1.3-4.1,2.1-4,2.5
	c0,0.3-0.2,0.6-0.5,0.8l-0.1,0l-0.5-0.2l-0.2,0l-0.3,0.2c0-0.1-0.3-0.2-0.8-0.2l-0.2,0.1l-0.1,0l0-0.1l0-0.2l-0.1,0l-0.1,0.1l-0.1,0
	l-0.1-0.1l0-0.1c0-1.6,0.7-6.1,2.1-13.7c-0.1-0.5,0.1-0.9,0.8-1.1l2.9-0.7L115.3,5.9z M14.5,61.5l0.4-0.1c0.6-0.2,1.2,0.1,1.8,0.7
	l0.7,3.1c0.2,0.7,0.5,1.4,0.9,2c0.5-0.6,0.8-1.3,1.1-1.9c0.8-1.2,1.6-2.5,2.3-3.8c0.2-0.9,0.9-1.7,1.8-2l0.5-0.2
	c0.5,0,0.8,0.1,1,0.2c0.1,0,0.4,0.1,0.9,0.4l0,0.2c0.1,0.5-0.1,2.6-0.7,6.3c-0.2,1.4-0.3,2.1-0.5,2.1l0.1,0.1l0,0.1l-0.5,2.3
	c-0.3,0.9-0.5,1.9-0.6,2.9l-0.4,0.8l-0.5,0.1l0-0.2l-0.3,0.2c0-0.1-0.2-0.2-0.6-0.2l-0.1,0.2c-0.1,0-0.3-0.1-0.4-0.3
	c-0.2,0.1-0.3,0-0.3-0.1l-0.1-0.5c-0.3-1,0-3.1,0.8-6.4c-0.7,1.1-1.2,2.2-1.6,3.4c-0.2,0-0.4,0.3-0.6,0.6l-0.1,0
	c-0.5-0.2-1.1-0.3-1.7-0.3c-0.6-0.2-1.3-1.1-2.2-2.8l-0.1,0c-0.4,3-0.9,6-1.5,8.9l-0.2,0l-0.4-0.1l-0.2,0.1L13,77.4l-0.1,0.1
	l-0.2-0.3l-0.1,0.2l-0.1-0.1l-0.6,0.3c-0.2-0.2-0.4-0.4-0.6-0.3l-0.1-0.3c-0.3-1.2,0.2-5.1,1.6-11.6c0.1-2.3,0.4-3.5,0.8-3.6
	L14.5,61.5z M34.2,56.7c0,0.1,0.1,0.2,0.3,0.2c0,0,0.1,0,0.1,0l0,0.1l-0.2,0.1l0,0.1c0.2-0.1,0.4,0,0.4,0l0,0.1l-0.3,0.1
	c0,0.1,0.2,0.2,0.5,0.1l0,0.1l-0.2,0.1l0,0.1l0.9-0.2l0.8,0.2l-0.1,0.1l0,0.1c0.2-0.1,0.4,0,0.4,0.1c0,0.2-0.8,0.6-2.5,1.3
	c-1.2,0.5-2.2,1.1-3.2,2L30.7,63l0.1,0c0.7-0.4,1.4-0.6,2.2-0.8l0.2,0.2L33,62.5l0,0.1c0.4-0.1,0.6-0.1,0.6,0l-0.3,0.3l0,0.1l0.1,0
	l0,0.2c0.1,0.2,0.3,0.4,0.7,0.4l0,0.1l0,0.1l0,0.1c0.2-0.1,0.4,0,0.4,0.1l0,0.1c0,0.1-1.4,0.9-4.3,2.4c-0.4,0.1-0.7,1-0.9,2.6l5-2.3
	l0,0.1l0.1,0l0.3-0.2c0.1,0.2,0.3,0.3,0.5,0.3l0.1,0.2c-0.1,0.1-0.3,0.2-0.3,0.3l-0.2,0l0,0.1l0.4-0.1l0,0.2l-0.4,0.1l0.1,0l0,0.1
	l-0.1,0.1c0.7-0.2,1.1-0.2,1.3,0.1l0,0.1c0.3,0,0.4,0,0.4,0.1c-1.3,0.9-2.6,1.7-4.1,2.3c-2.8,1.3-4.1,2.1-4,2.5
	c0,0.3-0.2,0.6-0.5,0.8l-0.1,0l-0.5-0.2l-0.2,0l-0.3,0.2c0-0.1-0.3-0.2-0.8-0.2l-0.2,0.1l-0.1,0l0-0.1l0-0.2l-0.1,0l-0.1,0.1l-0.1,0
	l-0.1-0.1l0-0.1c0-1.6,0.7-6.1,2.1-13.7c-0.1-0.5,0.1-0.9,0.8-1.1l2.9-0.7L34.2,56.7z M39.5,54.8l0.4-0.1c0.6-0.2,1.2,0.1,1.8,0.7
	l0.7,3.1c0.2,0.7,0.5,1.4,0.9,2c0.5-0.6,0.8-1.3,1.1-1.9c0.8-1.2,1.6-2.5,2.3-3.8c0.2-0.9,0.9-1.7,1.8-2l0.5-0.2
	c0.5,0,0.8,0.1,1,0.2c0.1,0,0.4,0.1,0.9,0.4l0,0.2c0.1,0.5-0.1,2.6-0.7,6.3c-0.2,1.4-0.3,2.1-0.5,2.1l0.1,0.1l0,0.1l-0.5,2.3
	C49,65,48.8,66,48.7,66.9l-0.4,0.8l-0.5,0.1l0-0.2L47.6,68c0-0.1-0.2-0.2-0.6-0.2L46.8,68c-0.1,0-0.3-0.1-0.4-0.3
	c-0.2,0.1-0.3,0-0.3-0.1l-0.1-0.5c-0.3-1,0-3.1,0.8-6.4c-0.7,1.1-1.2,2.2-1.6,3.4c-0.2,0-0.4,0.3-0.6,0.6l-0.1,0
	c-0.5-0.2-1.1-0.3-1.7-0.3c-0.6-0.2-1.3-1.1-2.2-2.8l-0.1,0c-0.4,3-0.9,6-1.5,8.9l-0.2,0l-0.4-0.1l-0.2,0.1L38,70.7L38,70.8
	l-0.2-0.3l-0.1,0.2l-0.1-0.1L36.9,71c-0.2-0.2-0.4-0.4-0.6-0.3l-0.1-0.3c-0.3-1.2,0.2-5.1,1.6-11.6c0.1-2.3,0.4-3.5,0.8-3.6
	L39.5,54.8z M60.2,49.4L60.2,49.4c0.6-0.2,1.3,0.2,2.1,1.1l0.1,0.1l0.1,0.4c0.1,0.2-0.3,0.6-1.1,1l0,0.1c1.4,0.9,2.5,2.3,3,3.9
	l0.1,0.4c0.9,3.3,0,5.9-2.6,7.6c-0.7,0.4-1.5,0.8-2.3,1l-0.9,0.2c-2.5,0.7-4.7-0.1-6.5-2.4c-0.2,0-0.4-0.4-0.7-1.3l-0.1-0.6
	c-0.7-2.5,0.5-5.3,3.6-8.3C56.5,51.1,58.3,50.1,60.2,49.4L60.2,49.4z M54.7,60.7L54.7,60.7c0.3,1,1,1.3,2.2,1.2l0.7-0.2
	c1.8-0.5,3.1-1.9,4.1-4.3c0.1-0.7,0.1-1.5-0.1-2.2c-0.1-0.5-0.3-0.9-0.6-1.3l0-0.2c-0.4-0.7-0.6-1.1-0.6-1.1
	c-1.5,0.6-3.1,2.2-4.7,4.6C54.8,58.2,54.5,59.5,54.7,60.7L54.7,60.7z M69.7,46.6l0.7-0.2c3.3-0.9,5.5-0.3,6.7,1.7l0.2,0.4l0.1,0.2
	c0.2,0.7-1,2.1-3.6,4.4c1.2,2,2.1,4.1,2.9,6.3l0.1,0.1l0,0.1l0,0.2l0.3,0.6l-0.1,0.1l-0.1,0c-0.1-0.2-0.1-0.3-0.2-0.3
	c0,0.1,0,0.2-0.1,0.3l-0.2,0l-0.1-0.1l-0.1,0c0,0.2-0.1,0.3-0.1,0.4l-0.4,0l-0.1,0.2c-0.1-0.2-0.3-0.3-0.5-0.3
	c-1.4-1.8-2.7-3.8-3.8-5.8l-3,2c-0.1,0.8-0.3,1.2-0.4,1.4l0,0.4L67.6,59l0.1-0.9l0-0.1l-0.1,0l-0.2,0.9l0.2,0.1
	c-0.2,0.1-0.4,0.7-0.7,1.8c-0.1,0-0.1,0.4-0.2,1.1c-0.1,0-0.2,0.6-0.3,1.7l-0.1,0c-0.1-0.2-0.4-0.4-0.9-0.4l-0.1,0.2
	c0-0.1-0.1-0.1-0.3-0.1l-0.2,0.1c-0.2-0.2-0.4-0.3-0.6-0.3L64.2,63c-0.3-1.2,0.1-4.9,1.4-11c-1.2-0.4-1.9-0.8-2-1.3l-0.1-0.4
	c0-0.3,0.8-1,2.4-2.1C66,47.8,67.3,47.2,69.7,46.6L69.7,46.6z M68.8,53.1l0.2,0c2.6-2.1,4.1-3.6,4.6-4.5l0-0.1l-1.5,0.3l-0.1,0
	c-1.9,0.5-2.8,1-2.6,1.4C69.2,51.2,69.1,52.2,68.8,53.1L68.8,53.1z M85.3,42.8l0.3-0.1c0.4-0.1,1,0.1,1.8,0.7l0.1,0.3
	c-4.6,7.8-7.3,11.9-8,12.5c0.1,0.2,0,0.3-0.3,0.4c0,0.2-0.4,0.9-1.2,2.3c-0.5,0.7-0.8,1.5-0.9,2.3l-0.4,0.2c-0.3,0.1-0.6,0-0.9-0.1
	l-0.1,0.2c-0.2-0.3-0.5-0.4-1-0.2l-0.7-0.5l0-0.2c-0.2-0.8,1.2-3.3,4.1-7.5c0.5-0.7,0.8-1.4,1.1-2.2c-2.5-1.4-3.9-2.8-4.3-4.2
	l-0.1-0.5c0.3-0.4,0.7-0.7,1.2-0.8l0.3-0.1c1-0.3,1.9,0.3,2.8,1.6c0.4,0.8,1,1.4,1.8,1.8c1.1-1.6,2-3.3,2.9-5
	C84.2,43.3,84.7,42.9,85.3,42.8z M89.9,49.9l0.8-0.2l0.8-0.2l0,0.1l-0.4,0.1l0,0c0.1,0,0.2,0,0.3,0l0.2-0.1l0,0l0,0.1l-0.5,0.2l0,0
	l0.3-0.1l0,0l0,0c0,0.1-0.1,0.1-0.4,0.3c0,0.1-0.1,0.1-0.2,0.2l0,0l0.3-0.1l0,0.1l-0.1,0l0,0.1l0.2-0.1l0,0.1l0,0l0,0
	c0.1,0,0.2,0,0.2,0.1l0,0l-3.8,1.5c-0.2,0.1-0.5-0.1-1-0.5l-0.1-0.2c-0.1-0.3,0.4-0.6,1.4-0.9L89.9,49.9z M100.1,39.2l0.6-0.1
	c1.1-0.4,2.3-0.3,3.3,0.4l0.2,0.7c0.3,1,0,1.6-0.7,1.8c-0.6,0-1.2,0.1-1.8,0.2c-3.9,1-6.1,3.6-6.5,7.7l0.1,0.8l0.1,0.2
	c0.2,0.8,0.9,1.2,2,1.1c0.9-0.1,1.8-0.2,2.7-0.5l1.4-0.4l0,0.2l-0.3,0.1l0,0.1c0.1,0,0.3,0,0.5,0.2l0.1,0l0.1,0.2l-0.8,0.3l0,0.1
	l0.2,0l0,0.5l0.2,0l0,0.2l-0.2,0l0,0.1c0.1-0.1,0.3,0,0.4,0.2c0,0,0,0.1,0,0.1l0.2,0l-0.1-0.1l0-0.1l0.1-0.1l0.5-0.1l0,0.2l0.1,0.1
	l-0.1,0.1l-0.2,0.1l0,0.1l0.2,0.1l0.2-0.1l-0.1-0.1l0-0.1l0.2-0.1l0.3,0c0.1,0.5-1.7,1.2-5.4,2.2c-2.2,0.7-4.6-0.2-5.8-2.1l-0.3-1
	c-0.7-2.5,0.3-5.5,2.9-9.2C95.6,41.2,97.7,39.8,100.1,39.2L100.1,39.2z M101.5,51.5l0.5-0.1l0,0.2l-0.5,0.1L101.5,51.5z M107.4,36.6
	c1.4-0.4,2.3-0.2,2.8,0.5c0.4,0.7,1,2,1.8,4.1l0.1,0.1c0.1,0.3,0.2,0.5,0.3,0.4l2.2-0.9l0,0.1l0.1,0l1.1-0.4l0,0.1l-0.5,0.3l0,0.1
	l0.5-0.1l0.5-0.2l0,0.1c-0.3,0.3-0.7,0.5-1.1,0.6l0,0.1l0.3-0.2c0.4,0,0.5,0.1,0.6,0.2l0.3-0.2c1-0.2,1.5-0.3,1.5-0.1l-0.1,0.1
	l0.5,0l0,0.1c-1.2,0.8-2.4,1.5-3.8,1.9l-1.2,0.6c0.9,1.5,1.7,3.1,2.2,4.7l0.1,0.3l-0.2,0.3l-0.1,0c-0.2,0-0.4,0-0.6-0.1l0.1,0.2
	l-0.1,0l0-0.1l-0.2,0.2l-0.3-0.1l-0.6,0.5l-0.7-0.4c-0.9-1.2-1.6-2.5-2.2-3.9l-0.1,0c-2.8,1.6-4.1,2.7-4,3.1
	c-0.5,0.8-0.8,1.7-1.1,2.7c-0.2,0.5-0.4,0.7-0.6,0.8l-0.2-0.3l0,0.1l-0.1,0c-0.3-0.1-0.5-0.2-0.6-0.5l0,0.1l-0.1,0l0-0.1
	c-0.2,0.1-0.4,0-0.7-0.3c-0.2,0.1-0.3,0-0.3-0.1l-0.1-0.5c-0.1-0.5,0.2-1.6,1-3.1c0.3-0.9,0.8-2.3,1.5-4l1.3-4.9l0.1-1.6
	C107,36.8,107.2,36.6,107.4,36.6z M110.7,43.6L110.7,43.6c0.8-0.4,1.1-0.6,1.1-0.7l-0.5-1.1C111,42.4,110.8,43,110.7,43.6z
	 M117,40.6l0.1,0l0,0.1l-0.1,0L117,40.6z M117.3,41.1L117.3,41.1l0.2,0l0-0.1L117.3,41.1z M120.7,32.7l0.7-0.2
	c3.3-0.9,5.5-0.3,6.7,1.7l0.2,0.4l0.1,0.2c0.2,0.7-1,2.1-3.6,4.4c1.2,2,2.1,4.1,2.9,6.3l0.1,0.1l0,0.1l0,0.2l0.3,0.6l-0.1,0.1
	l-0.1,0c-0.1-0.2-0.1-0.3-0.2-0.3c0,0.1,0,0.2-0.1,0.3l-0.2,0l-0.1-0.1l-0.1,0c0,0.2-0.1,0.3-0.1,0.4l-0.4,0l-0.1,0.2
	c-0.1-0.2-0.3-0.3-0.5-0.3c-1.4-1.8-2.7-3.8-3.8-5.8l-3,2c-0.1,0.8-0.3,1.2-0.4,1.4l0,0.4l-0.2,0.1l0.1-0.9l0-0.1l-0.1,0l-0.2,0.9
	l0.2,0.1c-0.2,0.1-0.4,0.7-0.7,1.8c-0.1,0-0.1,0.4-0.2,1.1c-0.1,0-0.2,0.6-0.3,1.7l-0.1,0c-0.1-0.2-0.4-0.4-0.9-0.4l-0.1,0.2
	c0-0.1-0.1-0.1-0.3-0.1l-0.2,0.1c-0.2-0.2-0.4-0.3-0.6-0.3l-0.1-0.2c-0.3-1.2,0.1-4.9,1.4-11c-1.2-0.4-1.9-0.9-2-1.3l-0.1-0.4
	c0-0.3,0.8-1,2.4-2.1C117,33.8,118.3,33.3,120.7,32.7L120.7,32.7z M120.8,39.1l0.2,0c2.6-2.1,4.1-3.6,4.6-4.5l0-0.1l-1.5,0.3l-0.1,0
	c-1.9,0.5-2.8,1-2.6,1.4C121.2,37.3,121.1,38.2,120.8,39.1L120.8,39.1z M132,29.3l0.4-0.1c2-0.5,4-0.4,5.9,0.3
	c0.7,0.3,1.3,0.9,1.5,1.6c0.4,1.4-0.5,3.9-2.6,7.5c-1.1,1.4-2.4,2.7-3.8,3.9c-1.1,0.6-2,1.3-2.9,2.1l-0.8,0.1
	c-0.4,0.4-1,0.8-1.5,1.1l-0.1-0.1l0.1-0.4l-0.1,0l-0.4,0.3l-0.2-0.4l0.1-0.3l-0.1,0l-0.3,0.2l-0.1-0.1l0-0.1l0-0.2l-0.1,0l-0.3,0.2
	c-0.1,0-0.2,0-0.3-0.2c-0.3,0-0.4,0-0.4-0.1c0.2-0.3,0.5-0.6,0.8-0.8c0.7-0.9,1.3-3.2,1.8-7c0.3-1.3,0.4-2.5,0.4-3.8
	c-0.9,0.2-1.7-0.2-2.5-1.2C126.3,31.4,128.2,30.6,132,29.3L132,29.3z M132.4,41c3.6-3.1,5.2-5.5,4.8-7.2c-0.3-1.1-1.4-1.6-3.3-1.4
	c-0.4,0.1-0.5,0.6-0.5,1.5L132.4,41z M42.2,83.5c0,0.1,0.2,0.1,0.7,0.2c0.1,0.2,0.2,0.3,0.5,0.3l0,0.1l-0.1,0.1l0,0.1
	c0.2-0.1,0.3,0,0.4,0.1l-0.1,0.1c0.3-0.1,0.6,0.1,1.2,0.5c0.1,0.2-2.6,1.3-7.9,3.3c-0.5,0.1-0.8,0.7-0.7,1.6c-0.1,0-0.1,0.5-0.2,1.3
	l0.1,0l2-0.7c0.3,0.3,0.6,0.4,0.7,0.3l0.1,0.4l0.2,0.2l0,0.1L39,91.5l0,0.1l0.1,0l0.5-0.2l0.5,0l0,0.1L40,91.5l0,0.1
	c0.3,0,0.5,0,0.5,0.1c-0.5,0.7-2.2,1.8-5.2,3.2c-0.8,3.9-1.4,6.2-1.6,6.7c-0.4,0.1-0.6,0.3-0.6,0.4l-0.1,0l-0.3-0.1l0.1-0.1
	l-0.1-0.3l-0.2,0c0,0.2,0,0.3-0.1,0.3c-0.1-0.2-0.3-0.3-0.5-0.3l0,0.1c0,0.3,0,0.4-0.1,0.5l-0.1-0.1l-0.1,0l-0.1,0.2l-0.4-0.3
	c-0.1,0-0.2,0-0.3-0.1c0,0,0,0,0-0.1c-0.3-1,0-3.3,0.8-6.9c0.7-3.6,1-6.1,0.6-7.3c0.2-0.9,0.5-1.4,0.9-1.5l1.4,0
	C37.1,85.1,39.6,84.2,42.2,83.5z M44.4,79.8l0.2-0.1c0.4-0.1,0.7,0.1,1,0.4l0,0.1c-0.1,0.5-0.3,0.9-0.6,1.3l0,0
	c-0.1,0-0.2,0-0.2-0.1l0,0l0,0c-0.3,0.1-0.6,0-0.8-0.2l0-0.1c0-0.4,0.1-0.9,0.3-1.3L44.4,79.8z M47.6,79c0.4-0.1,0.8,0,1.1,0.3l0,0
	c-0.1,0.5-0.2,1-0.5,1.4l-0.1,0L48,80.7l-0.2,0.1l-0.1-0.1l-0.1,0.1l-0.2,0c-0.2-0.1-0.3-0.2-0.4-0.4c0-0.9,0.1-1.4,0.4-1.5L47.6,79
	z M42.2,83.2l0.4-0.1c0.8-0.2,1.7,0.1,2.3,0.7l0.1,0.3c0,1.4-0.2,2.8-0.6,4.1c-0.5,2.2-0.6,4.4-0.1,6.6l0.1,0.2
	c1-1.1,1.8-2.4,2.3-3.9c0.9-1.9,1.6-4,1.9-6.1l0.2-1.1c0.1,0,0.2-0.1,0.2-0.2c0,0,0,0,0-0.1l0.1-0.1l0.2,0l0.1,0.3l0.1,0
	c-0.1-0.9-0.1-1.3,0-1.4l0.1,0l0.1,0.3l0.1,0l-0.2-0.6l0.2,0l0.1,0.2c0.2-0.4,0.4-0.8,0.4-1.3l0.1,0c0.7,0.4,1.2,1.1,1.3,2
	c0.9,3.3-0.2,7.5-3.3,12.8c-0.7,0.7-1.6,1.2-2.5,1.5c-1.9,0.5-3.3,0.2-4.3-1.1l-0.4-0.9l-0.1-0.4c-0.5-1.8-0.6-3.7-0.2-5.5l0.7-5
	C41.5,83.8,41.8,83.3,42.2,83.2L42.2,83.2z M55.5,79.4l0.7-0.2c3.3-0.9,5.5-0.3,6.7,1.7l0.2,0.4l0.1,0.2c0.2,0.7-1,2.1-3.6,4.4
	c1.2,2,2.1,4.1,2.9,6.3l0.1,0.1l0,0.1l0,0.2l0.3,0.6l-0.1,0.1l-0.1,0c-0.1-0.2-0.1-0.3-0.2-0.3c0,0.1,0,0.2-0.1,0.3l-0.2,0L62,93.4
	l-0.1,0c0,0.2-0.1,0.3-0.1,0.4l-0.4,0L61.3,94c-0.1-0.2-0.3-0.3-0.5-0.3c-1.4-1.8-2.7-3.8-3.8-5.8l-3,2c-0.1,0.8-0.3,1.2-0.4,1.4
	l0,0.4l-0.2,0.1l0.1-0.9l0-0.1l-0.1,0l-0.2,0.9l0.2,0.1c-0.2,0.1-0.4,0.7-0.7,1.8c-0.1,0-0.1,0.4-0.2,1.1c-0.1,0-0.2,0.6-0.3,1.7
	l-0.1,0c-0.1-0.2-0.4-0.4-0.9-0.4l-0.1,0.2c0-0.1-0.1-0.1-0.3-0.1l-0.2,0.1c-0.2-0.2-0.4-0.3-0.6-0.3L50,95.7
	c-0.3-1.2,0.1-4.9,1.4-11c-1.2-0.4-1.9-0.9-2-1.3l-0.1-0.4c0-0.3,0.8-1,2.4-2.1C51.8,80.6,53.1,80,55.5,79.4L55.5,79.4z M54.7,85.9
	l0.2,0c2.6-2.1,4.1-3.6,4.6-4.5l0-0.1l-1.5,0.3l-0.1,0c-1.9,0.5-2.8,1-2.6,1.4C55,84,54.9,84.9,54.7,85.9L54.7,85.9z M70,75.4l0.2,0
	c0.4,0,0.8,0.1,1.1,0.3l0.1,0.1l0.1,0l0,0.3l0.3,0.9c0.1,0.9,0,1.4-0.5,1.5l-0.5,0.1c-2.7,0.9-5.1,2.3-7.2,4.2l0,0.2l0.1,0
	c3.9-0.7,6.2-0.7,6.7-0.1c0.4,0.1,0.8,0.5,0.8,1c0.3,1.8,0.3,2.7,0.1,2.8c-1,1.2-2.1,2.3-3.4,3.2c-2,1.3-4.7,3-8.2,4.9l-0.1-0.1
	l0-0.1l0.5-0.4l0-0.2l-0.8,0.4l0-0.1c0-0.1,0.1-0.2,0.3-0.3l0-0.2l-0.2,0.1l0-0.2l0.2,0l0-0.1l-0.5,0l0.1-0.1l-0.1-0.2
	c-0.2,0.1-0.3,0-0.4-0.2l-0.1,0.1l-0.2,0l0-0.1l0.1-0.1l0-0.1l-0.2,0c0-0.1-0.1-0.1-0.3-0.1l0-0.1c-0.1-0.3,1.9-1.6,5.8-3.9
	c1.6-1,3-2.1,4.4-3.3c-4.6,0.9-6.9,1-7.1,0.4c-0.6-0.2-1.1-0.7-1.2-1.3c-0.1-0.8,0-1.7,0.4-2.4C63.3,78.6,66.6,76.3,70,75.4L70,75.4
	z M59.7,93.2L59.7,93.2l0.2,0l0-0.1L59.7,93.2z M79.1,72.6l0.5-0.1c1.4,0.1,2.3,0.6,2.5,1.4c-0.2,0.6-0.8,3.9-1.8,9.6l-0.3,1.2
	l4.6-1.6l0.6-0.1l0.5-0.1l0,0.2l-0.2,0.1l0.1,0.2l0.5-0.1l0,0.2L85.3,84l0.3,0.4l0.5-0.1l0.9,0.5c0,0.1-1.4,0.8-4.2,2
	c-1.2,0.6-2.8,1.5-4.8,2.7l-0.1,0c-0.3,0.1-0.9-0.2-1.8-0.8l0-0.1l0.1-0.1L76,88.4l-0.2-0.8c-0.1-0.3,0.1-0.6,0.4-1.1
	c1-4.1,1.8-8.3,2.1-12.6l-0.1-0.2C78.4,73.1,78.7,72.7,79.1,72.6z M92.7,70c0,0.1,0.1,0.2,0.3,0.2c0,0,0.1,0,0.1,0l0,0.1l-0.2,0.1
	l0,0.1c0.2-0.1,0.4,0,0.4,0l0,0.1l-0.3,0.1c0,0.1,0.2,0.2,0.5,0.1l0,0.1L93.4,71l0,0.1l0.9-0.2l0.8,0.2L95,71.1l0,0.1
	c0.2-0.1,0.4,0,0.4,0.1c0,0.2-0.8,0.6-2.5,1.3c-1.2,0.5-2.3,1.1-3.2,2l-0.4,1.8l0.1,0c0.7-0.4,1.4-0.6,2.2-0.8l0.2,0.2l-0.2,0.1
	l0,0.1c0.4-0.1,0.6-0.1,0.6,0L91.9,76l0,0.1l0.1,0l0,0.2c0.1,0.2,0.3,0.4,0.7,0.4l0,0.1l0,0.1l0,0.1c0.2-0.1,0.4,0,0.4,0.1l0,0.1
	c0,0.1-1.4,0.9-4.3,2.4c-0.4,0.1-0.7,1-0.9,2.6l5-2.3l0,0.1l0.1,0l0.3-0.2c0.1,0.2,0.3,0.3,0.5,0.3l0.1,0.2
	c-0.1,0.1-0.3,0.2-0.3,0.3l-0.2,0l0,0.1l0.4-0.1l0,0.2l-0.4,0.1l0.1,0l0,0.1L93.8,81c0.7-0.2,1.1-0.2,1.3,0.1l0,0.1
	c0.3,0,0.4,0,0.4,0.1c-1.3,0.9-2.6,1.7-4.1,2.3c-2.8,1.3-4.1,2.1-4,2.5c0,0.3-0.2,0.6-0.5,0.8l-0.1,0l-0.5-0.2l-0.2,0l-0.3,0.2
	c0-0.1-0.3-0.2-0.8-0.2l-0.2,0.1l-0.1,0l0-0.1l0-0.2l-0.1,0l-0.1,0.1l-0.1,0l-0.1-0.1l0-0.1c0-1.6,0.7-6.1,2.1-13.7
	c-0.1-0.5,0.1-0.9,0.8-1.1l2.9-0.7L92.7,70z M98.4,68.7l0.9-0.2c2.8-0.8,4.9-0.4,6.2,1c0.3,0.2,0.5,0.5,0.7,0.9l0,0.1
	c0.2,0.9-0.7,2.1-2.8,3.6l0,0.1c1.4,0.7,2.1,1.3,2.3,1.8l0.1,0.5c0.3,1.2-3,4.1-10.1,8.6l-1.5,0.8l-0.1-0.1l0.1-0.1l-0.1-0.2
	c-0.3,0.1-0.4,0.1-0.4,0L93.6,85l0.7-0.5l0-0.1l-0.1,0l-1,0.4l0-0.2c0.3-0.1,0.5-0.3,0.5-0.4l-0.1,0l-0.4,0.3L93,84.6l-0.1,0
	l-0.4,0.2l-0.1,0l0-0.1l0.1-0.3l0-0.1l-0.1,0L92,84.6l-0.1-0.1l0-0.1c0.2-0.4,0.6-0.8,1.1-0.9l-0.4-0.7c0.8-3.4,1.8-6.7,3.1-10
	c-0.7,0.3-1.5,0.2-2.1-0.2c-0.2,0-0.5-0.3-0.9-0.9c-0.2-0.6,0.9-1.3,3.1-2.1L98.4,68.7z M99.2,73.2c1.2-0.8,2.4-1.7,3.5-2.7
	c0-0.2-0.7-0.1-1.8,0.2l-1.1,0.3C99.5,71.8,99.3,72.5,99.2,73.2L99.2,73.2z M97,80.5L97,80.5c1.9-1,3.5-2.4,4.9-4l-1.4,0.4
	c-1.9,0.5-2.8,0.9-2.7,1.3L97,80.5z M112.9,64.6c0,0.1,0.1,0.2,0.3,0.2c0,0,0.1,0,0.1,0l0,0.1l-0.2,0.1l0,0.1c0.2-0.1,0.4,0,0.4,0
	l0,0.1l-0.3,0.1c0,0.1,0.2,0.2,0.5,0.1l0,0.1l-0.2,0.1l0,0.1l0.9-0.2l0.8,0.2l-0.1,0.1l0,0.1c0.2-0.1,0.4,0,0.4,0.1
	c0,0.2-0.8,0.6-2.5,1.3c-1.2,0.5-2.2,1.1-3.2,2l-0.4,1.8l0.1,0c0.7-0.4,1.4-0.6,2.2-0.8l0.2,0.2l-0.2,0.1l0,0.1
	c0.4-0.1,0.6-0.1,0.6,0l-0.3,0.3l0,0.1l0.1,0l0,0.2c0.1,0.2,0.3,0.4,0.7,0.4l0,0.1l0,0.1l0,0.1c0.2-0.1,0.4,0,0.4,0.1l0,0.1
	c0,0.1-1.4,0.9-4.3,2.4c-0.4,0.1-0.7,1-0.9,2.6l5-2.3l0,0.1l0.1,0l0.3-0.2c0.1,0.2,0.3,0.3,0.5,0.3l0.1,0.2
	c-0.1,0.1-0.3,0.2-0.3,0.3l-0.2,0l0,0.1l0.4-0.1l0,0.2l-0.4,0.1l0.1,0l0,0.1l-0.1,0.1c0.7-0.2,1.1-0.2,1.3,0.1l0,0.1
	c0.3,0,0.4,0,0.4,0.1c-1.3,0.9-2.6,1.7-4.1,2.3c-2.8,1.3-4.1,2.1-4,2.5c0,0.3-0.2,0.6-0.5,0.8l-0.1,0l-0.5-0.2l-0.2,0l-0.3,0.2
	c0-0.1-0.3-0.2-0.8-0.2l-0.2,0.1l-0.1,0l0-0.1l0-0.2l-0.1,0l-0.1,0.1l-0.1,0l-0.1-0.1l0-0.1c0-1.6,0.7-6.1,2.1-13.7
	c-0.1-0.5,0.1-0.9,0.8-1.1l2.9-0.7L112.9,64.6z M125.2,60.9l0.5-0.1c0.7-0.2,1.4,0,1.9,0.5l0.1,0.2l-0.9,8.3c-0.4,2-0.6,4.1-0.6,6.2
	l-0.2,0.3l-0.2,0.1l-0.4-0.1l-0.1,0.1l-0.4,0.1l-0.4-0.1l-0.7,0.3l-0.8-0.5l-0.1-0.5c0-0.6,0-1.2,0.1-1.7l-3.2-4.2l-1.1-1.7l-0.1,0
	l-1.3,7.2c-0.2,0.9-0.2,1.8-0.1,2.7l0.1,0.1l0,0.1c0,0.4,0,0.7-0.1,0.7l-0.2,0.1l-0.9-0.3l-0.2,0l-0.3,0.2l-0.2,0l-0.1,0.2l-0.1-0.1
	l-0.1,0l-0.1,0.1l-0.9-0.7l-0.1-0.3c-0.2-0.9,0.2-4,1.3-9.4l0.8-4.4c0.7-0.6,1.6-0.9,2.5-1.2c0.3-0.1,0.8,0.1,1.3,0.5l0,0.1
	c0.4,1.4,1.6,3.4,3.7,5.9c0.5-2.3,0.7-4.6,0.7-6.9c0-0.7,0.2-1.1,0.7-1.2C124.9,61.1,125,61,125.2,60.9z M130.9,59.6L130.9,59.6
	l0.2,0l0-0.1l0.1,0c0.6,0,1.2,0.3,1.6,0.7l0.1,0.3l-1.2,6.1c-0.1,0-0.1,0.1-0.1,0.3c-0.1,0-0.2,0.4-0.2,1c-0.1,0.3-0.2,0.6-0.1,0.9
	c-0.1,0.2-0.3,0.3-0.6,0.4c-0.4-0.1-0.8-0.2-1.3-0.2c-0.5-0.2-0.8-0.5-0.9-0.7c0.8-3.7,1.3-6.5,1.7-8.5L130.9,59.6z M128.5,69.7
	c0.8-0.1,1.7,0.2,2.3,0.8l0,0.1c-0.3,1.8-0.5,2.7-0.8,2.8l-0.2,0.1c-0.4-0.1-0.9-0.1-1.4,0l-0.6-0.4l-0.1-0.3
	C127.6,71.6,127.8,70.5,128.5,69.7L128.5,69.7z"/>
</svg>
