<svg xmlns="http://www.w3.org/2000/svg" width="173.594" height="127.936" viewBox="0 0 173.594 127.936">
  <path id="Pfad_3" data-name="Pfad 3" d="M-61.846-33.849h1.011q2.313,0,4.043,3.032l-.4,8.086a12.566,12.566,0,0,0,1.011,5.48q.427-.022,4.065-4.065.674-.2,8.086-7.884,2.785-3.841,5.683-3.841l1.415-.2q1.977.449,2.224,1.213.449,0,1.819,1.617v.4q0,2.044-5.885,14.981-2,4.852-2.628,4.852l.2.2v.2l-2.628,5.256q-.359.022-3.234,6.693L-48.482,4H-49.9v-.4l-.809.4q0-.449-1.415-.809l-.4.4q-.562-.067-.809-1.011-.809,0-.809-.4V.764q0-3.931,6.064-15.184a39.846,39.846,0,0,0-6.064,7.277q-.674,0-1.842,1.213h-.2a10.134,10.134,0,0,0-4.043-1.819q-2.044-1.393-3.639-8.288h-.2Q-72.9,4.223-73.8,5.009h-.4L-75.21,4.4l-.606.2-.2-.2-.2.2-.4-.809-.4.4-.2-.2-1.819.4q-.449-1.1-1.213-1.213V2.381q0-4.852,11.545-27.537,2.718-8.288,4.447-8.288Zm36.813,1.46H-23.8A6.485,6.485,0,0,1-18-29.087v.831q0,.584-3.931,7.03L-31.03-2.4Q-32.8.854-33.523,1.325l-.2-.225h-.2l-.427,1.033h-.4l.4-1.437-2.269,3.729h-.2l-.2-.2V4l.2-.2v-.4h-.2l-.831,1.864h-.427V5.031L-37.858,4l-3.324,2.7-.606-.4.2-.225V5.458l-.629.4-.4-.4q0-2.718,14.892-35.376Q-26.83-32.389-25.033-32.389Zm-3.8,26.908v.337h-.18V-5.48ZM.3-34.7l4.021.2H8.344a1.79,1.79,0,0,1,1.707,1.078l-.225.2q1.056.067,1.056.629v.225H8.569v.2H9.4v.427H9l.2.225-.2.2v.427l1.056.2v.225l-.225.2v.225q1.28,0,1.28,1.685.854.112.854.629v.427L-.55-25.808q-1.595,0-2.538,4.021Q-14.274,0-16.453,5.975a3.5,3.5,0,0,1-2.111,1.28l-.854-.854q-1.258,0-1.258-1.056l-.225.225h-.2q-.045-.539-2.111-1.909l-.651-1.078q0-4.268,10.175-22.663l1.707-4.021-7.861,1.258a5.764,5.764,0,0,1-5.93-4.021L-26.4-29.4v-.427a3.252,3.252,0,0,1,1.685-2.538h2.763Q-15.307-32.366.3-34.7Zm37.555,1.033h2.021l.18.18.18-.18h.18q5.862.921,5.862,2.021a4.438,4.438,0,0,1,1.64,2.179v.382l-.18.18a11.511,11.511,0,0,1,.741,3.481v.539q0,2.156-6.783,5.3v.382q2.942,1.325,2.942,5.84v2.381Q41.047-6.6,29.076-2.561,21.08,0,17.374,0L15.352-1.64l.18-.18v-.741a.645.645,0,0,1-.719-.741q-.359,0-.359-.9h-.562v-.2l.18-.18v-.18l-.359-.359V-5.3h.539v-.18l-.18-.2v-.18l.562-.18-.18-.18V-6.4l.18-.18h.18l.539.18q5.166,0,19.766-6.4,0-.427.921-.562v-.18l-.741-.18-8.6.539q-2.605,0-4.021-4.56l-.539-.921q0-1.325,7.861-3.661l9.344-4.2v-.18h-.382q-3.392,0-10.781,2.74H27.8q-1.46,0-3.1-3.122a3.479,3.479,0,0,1-.562-1.819v-.18q0-2.224,6.6-3.481A21.476,21.476,0,0,1,37.858-33.669Zm21,0h.18a3.949,3.949,0,0,1,3.639,2.358q.427.067,1.258,1.1,1.393.337,4.919,5.458a5.548,5.548,0,0,1,2,4v1.28q0,5.413-8,13.095Q55.22,0,48.1,0a12.742,12.742,0,0,1-5.458-1.819l-1.819-1.46q-3.639-3.01-3.639-5.458-.359-.045-.539-1.28v-1.64q0-7.435,14.016-19.092Q56.253-33.669,58.859-33.669ZM42.462-8.2q0,.786,3.818,1.1,7.727,0,15.476-9.276a21.644,21.644,0,0,0,3.279-7.1,2.954,2.954,0,0,0-1.819-2.92l-1.1-.719h-.18q-4.694.27-11.275,6.536Q42.912-13.05,42.462-8.2Zm-108.14,20.01h.483q1.106,0,1.934,1.45l-.193,3.867a6.01,6.01,0,0,0,.483,2.621,11.141,11.141,0,0,0,1.944-1.944,37.619,37.619,0,0,0,3.867-3.771q1.332-1.837,2.718-1.837l.677-.1q.945.215,1.063.58.215,0,.87.773v.193q0,.978-2.814,7.165-.956,2.32-1.257,2.32l.1.1v.1l-1.257,2.514a16.34,16.34,0,0,0-1.547,3.2l-.677.87h-.677v-.193l-.387.193q0-.215-.677-.387l-.193.193q-.269-.032-.387-.483-.387,0-.387-.193v-.677q0-1.88,2.9-7.262a19.057,19.057,0,0,0-2.9,3.48q-.322,0-.881.58h-.1a4.847,4.847,0,0,0-1.934-.87q-.978-.666-1.74-3.964h-.1Q-70.963,30.02-71.393,30.4h-.193l-.483-.29-.29.1-.1-.1-.1.1-.193-.387-.193.193-.1-.1-.87.193q-.215-.526-.58-.58v-.387q0-2.32,5.521-13.17Q-67.665,12-66.838,12Zm17.606.7h.591a3.1,3.1,0,0,1,2.771,1.579v.4a22.077,22.077,0,0,1-1.88,3.362l-4.351,9a6.472,6.472,0,0,1-1.192,1.783l-.1-.107h-.1l-.2.494h-.193l.193-.687-1.085,1.783h-.1l-.1-.1v-.107l.1-.1v-.193h-.1l-.4.892h-.2v-.107l.2-.494-1.59,1.289-.29-.193.1-.107v-.29l-.3.193-.193-.193q0-1.3,7.122-16.919Q-48.931,12.51-48.071,12.51Zm-1.815,12.869v.161h-.086v-.161Zm11.279-14.287h.569q2.492.913,2.492,2.4-.645,1.053-5.167,10.8l-.763,1.343,5.93-.387.763.1h.569v.193h-.279v.29h.569v.193l-.956.473.193.569h.569l.859.87q0,.258-5.64,1.042-2.385.483-6.5,1.633h-.1q-.526,0-1.815-1.536v-.1l.1-.086-.1-.1v-.956q0-.483.859-1.149a97.443,97.443,0,0,0,6.5-14.147l-.1-.29Q-39.445,11.092-38.607,11.092Zm12.117,0h.569q2.492.913,2.492,2.4-.645,1.053-5.167,10.8l-.763,1.343,5.93-.387.763.1h.569v.193h-.279v.29h.569v.193l-.956.473.193.569H-22l.859.87q0,.258-5.64,1.042-2.385.483-6.5,1.633h-.1q-.526,0-1.815-1.536v-.1l.1-.086-.1-.1v-.956q0-.483.859-1.149a97.443,97.443,0,0,0,6.5-14.147l-.1-.29Q-27.328,11.092-26.49,11.092Zm9.711,1.418h.591a3.1,3.1,0,0,1,2.771,1.579v.4a22.077,22.077,0,0,1-1.88,3.362l-4.351,9a6.473,6.473,0,0,1-1.192,1.783l-.1-.107h-.1l-.2.494h-.193l.193-.687-1.085,1.783h-.1l-.1-.1v-.107l.1-.1v-.193h-.1l-.4.892h-.2v-.107l.2-.494L-24.5,31.2l-.29-.193.1-.107v-.29l-.3.193-.193-.193q0-1.3,7.122-16.919Q-17.639,12.51-16.779,12.51Zm-1.815,12.869v.161h-.086v-.161ZM-1.182,11.93h.107q1.021,0,2.063,1.966L1.1,14v.483q0,.462-1.547.795v.1a9.019,9.019,0,0,1,2.374,5.511v.494q0,6.359-5.479,8.175a12.589,12.589,0,0,1-3.094.494H-7.788q-4.813,0-6.929-4.92-.3-.064-.408-1.772v-.7q0-4.77,6.918-8.658A17.642,17.642,0,0,1-1.182,11.93ZM-11.3,23.553v.1q0,1.708,2.17,1.966H-8.3q3.341,0,6.2-3.835a9.152,9.152,0,0,0,.612-2.664,4.493,4.493,0,0,0-.3-1.676l.1-.29q-.279-1.482-.408-1.482-3.04.408-7.025,3.942Q-11.3,21.716-11.3,23.553ZM18.24,11.887h.677a2.529,2.529,0,0,1,2.127,1.16v.29L17.37,22.8a38.352,38.352,0,0,0-2.707,7.058l-.29.29h-.29l-.387-.29-.1.1h-.483l-.483-.29-.967.1-.773-.87v-.677a7.66,7.66,0,0,1,.677-2.03L9.066,20.2l-.773-2.32H8.2l-3.867,8.11a11.344,11.344,0,0,0-.967,3.19l.1.1v.1q-.161.773-.387.773h-.29l-.967-.58H1.622l-.387.1-.29-.1-.193.193-.1-.1h-.1l-.1.1-.87-1.16v-.387q0-1.74,4.544-10.624l2.32-4.931a7.831,7.831,0,0,1,3.276-.58q.655,0,1.354.967v.1q0,2.739,2.514,8.11a39.026,39.026,0,0,0,3-7.917q.333-1.257,1.16-1.257Q17.757,11.908,18.24,11.887Zm7.219-3.223h.258a1.419,1.419,0,0,1,1.074.73V9.48a5.813,5.813,0,0,1-1.117,1.375h-.043q-.258-.086-.258-.215l-.043.043h-.043a1.1,1.1,0,0,1-.9-.473v-.129a2.87,2.87,0,0,1,.773-1.375Zm4.125,0a1.576,1.576,0,0,1,1.246.73v.043A4.688,4.688,0,0,1,29.8,10.984H29.67l-.215-.172-.215.043-.086-.172-.172.129h-.215a.714.714,0,0,1-.344-.559q.419-1.59.988-1.59Zm-3.051,3.717q2.589,0,3.169,1.536.333,1.364.806,5.414l.1.1q.054.634.269.634l2.89-.365v.183h.1l1.439-.086v.172l-.634.183v.1H35.3l.634-.1v.183a4.265,4.265,0,0,1-1.439.365v.183l.451-.1q.623.183.623.365l.462-.1q1.8.054,1.8.365l-.1.086.634.183v.183a17.458,17.458,0,0,1-5.06,1.085l-1.622.269a31.343,31.343,0,0,1,1.171,6.241v.354l-.269.279h-.1a.97.97,0,0,1-.623-.279v.279h-.183v-.183l-.279.183-.354-.279-.9.365-.73-.72a25.867,25.867,0,0,1-1.354-5.339h-.086Q22.29,25.69,22.29,26.571a17.787,17.787,0,0,0-2.17,2.793q-.623.73-1,.73l-.183-.451-.086.086h-.086q-.548-.322-.548-.72l-.086.086H17.95v-.183q-.376,0-.72-.537-.365,0-.365-.183V27.56q0-1.01,2.17-3.341.924-1.536,2.986-4.254l3.072-5.414.623-1.815A1.491,1.491,0,0,1,26.533,12.381Zm-.72,8.766v.086q1.536-.4,1.536-.537l-.269-1.45A7.556,7.556,0,0,0,25.813,21.146Zm8.4-1.536H34.4v.183h-.183Zm.1.634v.086h.183v-.086Zm9.8-8.6h.838q6.263,0,7.391,4.114l.1.569V16.6q0,1.235-5.618,4.114a43.086,43.086,0,0,1,1.407,8.325l.1.1v.086l-.1.29.1.838-.1.1h-.183q0-.376-.193-.376,0,.279-.183.279H47.47l-.086-.1h-.1q-.14.376-.279.376l-.473-.1-.183.193q-.064-.473-.473-.473a51.6,51.6,0,0,1-2.61-8.046l-4.211,1.407q-.58,1.321-.935,1.493l-.1.473h-.279l.376-1.031v-.1h-.1l-.473,1.031.193.193q-.354,0-1.407,1.955-.129.011-.559,1.225-.193,0-.935,1.869h-.1q0-.43-.935-.752l-.183.193q0-.193-.29-.193l-.279.1q-.2-.5-.559-.559v-.29q0-2.267,5.146-12.536-1.966-1.332-1.966-2.148v-.462q.075-.494,3.459-1.687Q39.617,11.64,44.107,11.64Zm-3,7.391H41.3q5.618-2.406,6.821-3.835v-.1l-1.869-.086h-.183q-3.556,0-3.556.838A19.84,19.84,0,0,1,41.11,19.03ZM54.635,12.51h.591A3.1,3.1,0,0,1,58,14.089v.4a22.077,22.077,0,0,1-1.88,3.362l-4.351,9a6.472,6.472,0,0,1-1.192,1.783l-.1-.107h-.1l-.2.494h-.193l.193-.687-1.085,1.783H49l-.1-.1v-.107l.1-.1v-.193h-.1l-.4.892h-.2v-.107l.2-.494L46.911,31.2l-.29-.193.1-.107v-.29l-.3.193-.193-.193q0-1.3,7.122-16.919Q53.775,12.51,54.635,12.51ZM52.819,25.379v.161h-.086v-.161Zm19.5-13.492h.677a2.529,2.529,0,0,1,2.127,1.16v.29L71.446,22.8a38.352,38.352,0,0,0-2.707,7.058l-.29.29h-.29l-.387-.29-.1.1h-.483l-.483-.29-.967.1-.773-.87v-.677a7.66,7.66,0,0,1,.677-2.03l-2.5-5.983-.773-2.32h-.1l-3.867,8.11a11.344,11.344,0,0,0-.967,3.19l.1.1v.1q-.161.773-.387.773h-.29l-.967-.58H55.7l-.387.1-.29-.1-.193.193-.1-.1h-.1l-.1.1-.87-1.16v-.387q0-1.74,4.544-10.624l2.32-4.931a7.831,7.831,0,0,1,3.276-.58q.655,0,1.354.967v.1q0,2.739,2.514,8.11a39.026,39.026,0,0,0,3-7.917q.333-1.257,1.16-1.257Q71.833,11.908,72.316,11.887Zm-92.06,40.362,1.842-1.887a.98.98,0,0,1,.651-.314,1.149,1.149,0,0,1,.7.359l1.8,1.932a1.126,1.126,0,0,1,.27.651,1.078,1.078,0,0,1-.314.7l-1.8,1.977q-.449.449-.651.449A.874.874,0,0,1-17.9,55.8l-1.977-2.269a.956.956,0,0,1-.225-.584A1.019,1.019,0,0,1-19.743,52.249Zm15.341,0,1.842-1.887a.98.98,0,0,1,.651-.314,1.149,1.149,0,0,1,.7.359l1.8,1.932a1.126,1.126,0,0,1,.27.651,1.078,1.078,0,0,1-.314.7l-1.8,1.977q-.449.449-.651.449a.874.874,0,0,1-.651-.314l-1.977-2.269a.956.956,0,0,1-.225-.584A1.019,1.019,0,0,1-4.4,52.249Zm15.341,0,1.842-1.887a.98.98,0,0,1,.651-.314,1.149,1.149,0,0,1,.7.359l1.8,1.932a1.126,1.126,0,0,1,.27.651,1.078,1.078,0,0,1-.314.7l-1.8,1.977q-.449.449-.651.449a.874.874,0,0,1-.651-.314L10.8,53.529a.956.956,0,0,1-.225-.584A1.019,1.019,0,0,1,10.938,52.249Z" transform="matrix(0.966, -0.259, 0.259, 0.966, 86.511, 52.962)" fill="#fff"/>
</svg>
