<svg xmlns="http://www.w3.org/2000/svg" width="172.887" height="135.813" viewBox="0 0 172.887 135.813">
  <path id="Pfad_6" data-name="Pfad 6" d="M-48.678-1.468l.721-.738a.384.384,0,0,1,.255-.123.45.45,0,0,1,.272.141l.7.756a.441.441,0,0,1,.105.255.422.422,0,0,1-.123.272l-.7.773q-.176.176-.255.176a.342.342,0,0,1-.255-.123l-.773-.888a.374.374,0,0,1-.088-.229A.4.4,0,0,1-48.678-1.468Zm6,0,.721-.738a.384.384,0,0,1,.255-.123.45.45,0,0,1,.272.141l.7.756a.441.441,0,0,1,.105.255.422.422,0,0,1-.123.272l-.7.773q-.176.176-.255.176a.342.342,0,0,1-.255-.123l-.773-.888a.374.374,0,0,1-.088-.229A.4.4,0,0,1-42.675-1.468Zm6,0,.721-.738a.384.384,0,0,1,.255-.123.45.45,0,0,1,.272.141l.7.756a.441.441,0,0,1,.105.255.422.422,0,0,1-.123.272l-.7.773q-.176.176-.255.176a.342.342,0,0,1-.255-.123l-.773-.888a.374.374,0,0,1-.088-.229A.4.4,0,0,1-36.672-1.468Zm13.931-11.707q1.187,0,2.558,1.969a8.268,8.268,0,0,1-1.239,2.883l-.738,1.644h.167L-16.976-8a31.047,31.047,0,0,1,2.382-4.931l.826-.246q.914.026,2.3,1.564v.492A10.011,10.011,0,0,1-13.109-8a5.819,5.819,0,0,0-.5,1.731l.246.246v.167l-.984.492q0,.246-.325.246v.079l.079.088v.079q-.141,0-.246.492-.211,0-.58.905H-15.5l-.079-.079h-.088q0,.686-.817.817l.079.088v.167a.218.218,0,0,0-.246.246h-.167l-.079.325.079.079v.167H-16.9l-.246-.079v.246h-.079l.079.079v.088A3.7,3.7,0,0,0-18.048.729a2.034,2.034,0,0,1-.492,1.063h-.088l-.079-.079h-.079l-.246.246q0-.167-.905-.246l-.088-.334-.079.088h-.079A1.013,1.013,0,0,1-20.43.809a10.367,10.367,0,0,1,1.4-4.28l.4-.984h-.079l-5.836,1.477q-.193.5-.334.5l-.079-.088h-.088A7.48,7.48,0,0,0-26.2-.018l-1.063,1.652h-.088V1.468l-.325.246L-28.824,1.3a.365.365,0,0,0-.413-.413V.4q0-.94,1.731-4.192l.079-.413q-.246-.079-.246-.492v-.659q1.371-.712,1.564-1.485l1.723-4.113-.079-.079v-.079l.738-1.644Zm17.033.4q2.118,0,2.593,1.257.272,1.116.659,4.43l.079.079q.044.519.22.519l2.364-.3v.149H.286l1.178-.07v.141l-.519.149v.079h.519l.519-.079v.149a3.49,3.49,0,0,1-1.178.3v.149l.369-.079q.51.149.51.3l.378-.079q1.477.044,1.477.3l-.079.07.519.149v.149a14.284,14.284,0,0,1-4.14.888l-1.327.22A25.644,25.644,0,0,1-.532,1.2v.29l-.22.229H-.831a.793.793,0,0,1-.51-.229v.229H-1.49V1.564l-.229.149-.29-.229-.738.3-.6-.589A21.164,21.164,0,0,1-4.452-3.173h-.07q-4.658,1.283-4.658,2a14.553,14.553,0,0,0-1.775,2.285q-.51.6-.817.6l-.149-.369-.07.07h-.07q-.448-.264-.448-.589l-.07.07h-.149V.747q-.308,0-.589-.439-.3,0-.3-.149V-.36q0-.826,1.775-2.733.756-1.257,2.443-3.48L-6.886-11l.51-1.485A1.22,1.22,0,0,1-5.708-12.779ZM-6.3-5.607v.07q1.257-.325,1.257-.439l-.22-1.187A6.182,6.182,0,0,0-6.3-5.607ZM.576-6.864H.725v.149H.576Zm.079.519v.07H.8v-.07Zm7.91-7.233,1.573.079h1.573a.7.7,0,0,1,.668.422L12.292-13q.413.026.413.246v.088H11.8v.079h.325v.167h-.158l.079.088-.079.079v.167l.413.079v.088l-.088.079v.088q.5,0,.5.659.334.044.334.246v.167l-4.9.58q-.624,0-.993,1.573Q2.861,0,2.008,2.338a1.368,1.368,0,0,1-.826.5L.848,2.5q-.492,0-.492-.413L.268,2.18H.189q-.018-.211-.826-.747l-.255-.422q0-1.67,3.981-8.868l.668-1.573L.681-8.938a2.256,2.256,0,0,1-2.32-1.573l-.246-.993v-.167a1.272,1.272,0,0,1,.659-.993H-.145A67.736,67.736,0,0,0,8.565-13.579Zm15.126.879h.387A9.617,9.617,0,0,1,29.7-10.872a2.874,2.874,0,0,1,1.063,1.978q0,2.145-4.482,6.539A23.792,23.792,0,0,1,21.564.387a12.6,12.6,0,0,0-3.349,1.292L17.38,1.6a6.467,6.467,0,0,1-1.749.686l-.079-.079.229-.378h-.07l-.457.149-.079-.457.149-.3h-.07l-.378.149L14.8,1.292v-.07l.079-.229H14.8l-.308.079q-.229,0-.229-.308-.378-.053-.378-.229a2.548,2.548,0,0,1,.993-.606q1.3-.993,3.568-6.24a20.518,20.518,0,0,0,1.371-3.577q-1.38,0-2.127-1.819Q17.688-12.349,23.691-12.7ZM20.351-2.5q6.46-3.015,6.46-5.7,0-1.767-2.812-2.206-.562,0-.835,1.362ZM34.1-12.674h.483a2.538,2.538,0,0,1,2.268,1.292v.325A18.063,18.063,0,0,1,35.31-8.306L31.75-.94A5.3,5.3,0,0,1,30.775.519L30.7.431h-.079l-.167.4h-.158L30.45.272l-.888,1.459h-.079L29.4,1.652V1.564l.079-.079V1.327H29.4l-.325.729h-.167V1.969l.167-.4-1.3,1.055-.237-.158.079-.088V2.136l-.246.158-.158-.158q0-1.063,5.827-13.843Q33.394-12.674,34.1-12.674ZM32.612-2.145v.132h-.07v-.132ZM45.787-12.85a.264.264,0,0,0,.3.3v.149h-.229v.079q.378,0,.378.149v.079h-.3q0,.229.448.229v.149h-.229v.07h.905l.686.378-.079.079v.07q.378,0,.378.158,0,.272-2.795.6a12.5,12.5,0,0,0-3.612,1.055L40.8-7.646h.079a11.334,11.334,0,0,1,2.338-.229l.149.229-.229.079v.07q.606,0,.606.149l-.378.158v.07h.149l-.07.229q0,.378.6.606v.07l-.07.079v.07q.378,0,.378.158v.07q0,.229-4.755,1.2-.589,0-1.512,2.268l5.432-.905v.149H43.6l.378-.079q.1.378.378.378v.229a.525.525,0,0,0-.378.229h-.158v.07h.457v.158H43.9l.079.07v.079l-.079.07q1.116,0,1.2.378l-.07.079q.378.053.378.229A18.826,18.826,0,0,1,40.882-.105q-4.526.765-4.526,1.362a1.151,1.151,0,0,1-.677.677H35.6l-.448-.378h-.158l-.378.079q0-.193-.747-.378l-.229.07-.079-.07V1.178L33.64.949h-.149l-.079.079h-.07L33.262.949V.879q.624-2.241,5.581-12.674,0-.756,1.055-.905l2.944.079ZM-64.758,10.469h.3q.633,0,1.84,1.324l.3.82v.2a6.236,6.236,0,0,1-1.43,2.766h.094l9.2-4.7h.105q0,.2-.3.2v.105h.2l.715-.3.105.094v.105l.105-.105h.5q0,.211-.3.211l.105.3.715-.105-1.324,1.23-.316.105v.094l1.125-.2q0,.176-.809.516l.2.2.105-.105h.094l.316.105v.105l-.211.3q.516,0,.516.41l-7.969,4.594v.105a79.657,79.657,0,0,1,1.84,9.5q.2,0,.3,1.219l-1.23.516-.105-.105h-.094l-1.125.516q-2.355-1.746-2.355-3.785l-1.324-5.52h-.105q-3.445,1.875-3.574,2.871l-1.641,2.555q-.258,0-.914,1.43h-.2v-.105l.094-.41v-.105H-71.3l-.105.3-.105-.094h-.105l-.5.609v.105h.094l.41-.621h.105v.211a.765.765,0,0,1-.82.609,9.451,9.451,0,0,0-1.125,2.965h-.3a.363.363,0,0,0-.41-.41l-.609-.2-.105-.105h-.094l-.516.105a.363.363,0,0,0-.41-.41l-.3-.715q1.535-4.488,7.359-14.719Q-66.082,10.727-64.758,10.469ZM-71.2,27.016h.211l.2-.4v-.105H-70.9Q-71.074,26.512-71.2,27.016ZM-40,10.469h.117q1.113,0,2.25,2.145l.117.117v.527q0,.5-1.687.867v.105a9.839,9.839,0,0,1,2.59,6.012v.539q0,6.938-5.977,8.918a13.733,13.733,0,0,1-3.375.539H-47.2q-5.25,0-7.559-5.367-.328-.07-.445-1.934v-.762q0-5.2,7.547-9.445Q-42.891,10.469-40,10.469Zm-11.039,12.68v.105q0,1.863,2.367,2.145h.9q3.645,0,6.762-4.184a9.984,9.984,0,0,0,.668-2.906,4.9,4.9,0,0,0-.328-1.828l.105-.316q-.3-1.617-.445-1.617-3.316.445-7.664,4.3Q-51.035,21.145-51.035,23.148Zm32.227-12.727h.738a2.759,2.759,0,0,1,2.32,1.266V12l-4.008,10.324a41.838,41.838,0,0,0-2.953,7.7l-.316.316h-.316l-.422-.316-.105.105H-24.4l-.527-.316-1.055.105-.844-.949v-.738a8.357,8.357,0,0,1,.738-2.215l-2.73-6.527-.844-2.531h-.105l-4.219,8.848a12.375,12.375,0,0,0-1.055,3.48l.105.105V29.5q-.176.844-.422.844h-.316l-1.055-.633h-.211l-.422.105-.316-.105-.211.211-.105-.105H-38.1l-.105.105-.949-1.266v-.422q0-1.9,4.957-11.59l2.531-5.379q.574-.457,3.574-.633.715,0,1.477,1.055v.105q0,2.988,2.742,8.848A42.573,42.573,0,0,0-20.6,12q.363-1.371,1.266-1.371Q-19.336,10.445-18.809,10.422Zm12.141-.527,2.1.105h2.1a.934.934,0,0,1,.891.563l-.117.105q.551.035.551.328v.117H-2.355v.105h.434v.223h-.211l.105.117-.105.105v.223l.551.105v.117l-.117.105v.117q.668,0,.668.879.445.059.445.328v.223l-6.527.773q-.832,0-1.324,2.1Q-14.273,28-15.41,31.117a1.824,1.824,0,0,1-1.1.668l-.445-.445q-.656,0-.656-.551l-.117.117h-.105q-.023-.281-1.1-1l-.34-.562q0-2.227,5.309-11.824l.891-2.1-4.1.656a3.008,3.008,0,0,1-3.094-2.1L-20.6,12.66v-.223a1.7,1.7,0,0,1,.879-1.324h1.441A90.315,90.315,0,0,0-6.668,9.895Zm13.852.258H8.1q6.832,0,8.063,4.488l.105.621v.3q0,1.348-6.129,4.488a47,47,0,0,1,1.535,9.082l.105.105v.094l-.105.316.105.914-.105.105h-.2q0-.41-.211-.41,0,.3-.2.3h-.211l-.094-.105h-.105q-.152.41-.3.41l-.516-.105-.2.211q-.07-.516-.516-.516A56.292,56.292,0,0,1,6.27,21.684L1.676,23.219Q1.043,24.66.656,24.848l-.105.516h-.3l.41-1.125v-.105H.551L.035,25.258l.211.211q-.387,0-1.535,2.133-.141.012-.609,1.336-.211,0-1.02,2.039h-.105q0-.469-1.02-.82l-.2.211q0-.211-.316-.211l-.3.105q-.223-.551-.609-.609v-.316q0-2.473,5.613-13.676Q-2,14.207-2,13.316v-.5q.082-.539,3.773-1.84Q2.285,10.152,7.184,10.152Zm-3.27,8.063h.211q6.129-2.625,7.441-4.184v-.105l-2.039-.094h-.2q-3.879,0-3.879.914A21.644,21.644,0,0,1,3.914,18.215Zm24.07-7.746H28.1q1.113,0,2.25,2.145l.117.117v.527q0,.5-1.687.867v.105a9.839,9.839,0,0,1,2.59,6.012v.539q0,6.938-5.977,8.918a13.733,13.733,0,0,1-3.375.539H20.777q-5.25,0-7.559-5.367-.328-.07-.445-1.934v-.762q0-5.2,7.547-9.445Q25.09,10.469,27.984,10.469ZM16.945,23.148v.105q0,1.863,2.367,2.145h.9q3.645,0,6.762-4.184a9.984,9.984,0,0,0,.668-2.906,4.9,4.9,0,0,0-.328-1.828l.105-.316q-.3-1.617-.445-1.617-3.316.445-7.664,4.3Q16.945,21.145,16.945,23.148ZM40.207,9.555h.621q2.719,1,2.719,2.613-.7,1.148-5.637,11.777l-.832,1.465,6.469-.422.832.105H45V25.3h-.3v.316h.621v.211l-1.043.516.211.621h.621l.938.949q0,.281-6.152,1.137-2.6.527-7.09,1.781H32.7q-.574,0-1.98-1.676v-.105l.105-.094-.105-.105V27.813q0-.527.938-1.254a106.3,106.3,0,0,0,7.09-15.434l-.105-.316Q39.293,9.555,40.207,9.555Zm13.219,0h.621q2.719,1,2.719,2.613-.7,1.148-5.637,11.777L50.3,25.41l6.469-.422.832.105h.621V25.3h-.3v.316h.621v.211l-1.043.516.211.621h.621l.938.949q0,.281-6.152,1.137-2.6.527-7.09,1.781h-.105q-.574,0-1.98-1.676v-.105l.105-.094-.105-.105V27.813q0-.527.938-1.254a106.3,106.3,0,0,0,7.09-15.434l-.105-.316Q52.512,9.555,53.426,9.555Zm18.48,1.313a.352.352,0,0,0,.4.4v.2H72v.105q.5,0,.5.2v.105h-.4q0,.3.6.3v.2h-.3v.094h1.207l.914.5-.105.105v.094q.5,0,.5.211,0,.363-3.727.8a16.665,16.665,0,0,0-4.816,1.406L65.262,17.8h.105a15.112,15.112,0,0,1,3.117-.3l.2.3-.3.105V18q.809,0,.809.2l-.5.211v.094h.2l-.094.3q0,.5.8.809v.094l-.094.105v.094q.5,0,.5.211v.094q0,.3-6.34,1.605-.785,0-2.016,3.023l7.242-1.207v.2h.105l.5-.105q.129.5.5.5v.3a.7.7,0,0,0-.5.3h-.211v.094h.609v.211h-.5l.105.094v.105l-.105.094q1.488,0,1.605.5l-.094.105q.5.07.5.3-.891.574-6.035,1.5-6.035,1.02-6.035,1.816a1.534,1.534,0,0,1-.9.9h-.105l-.6-.5h-.211l-.5.105q0-.258-1-.5l-.3.094-.105-.094V29.57l.105-.3h-.2l-.105.105h-.094l-.105-.105v-.094q.832-2.988,7.441-16.9,0-1.008,1.406-1.207l3.926.105ZM-68.572,40.18h.211a1.161,1.161,0,0,1,.879.6v.07a4.756,4.756,0,0,1-.914,1.125h-.035q-.211-.07-.211-.176l-.035.035h-.035a.9.9,0,0,1-.738-.387V41.34a2.348,2.348,0,0,1,.633-1.125Zm3.375,0a1.29,1.29,0,0,1,1.02.6v.035a3.835,3.835,0,0,1-.844,1.266h-.105l-.176-.141-.176.035-.07-.141-.141.105h-.176a.584.584,0,0,1-.281-.457q.343-1.3.809-1.3Zm-6.328,2.689h.387a2.283,2.283,0,0,1,2,1.3l.07.308a14.923,14.923,0,0,1-1.687,3.841,14.205,14.205,0,0,0-1.767,6.363v.229A11.1,11.1,0,0,0-69.3,51.764a21.842,21.842,0,0,0,3.454-5.37l.457-.993a.2.2,0,0,0,.229-.229l.079-.079h.158V45.4h.07q.211-1.3.387-1.3h.079v.308h.07v-.615h.158v.229a2.558,2.558,0,0,0,.686-1.151h.079a2.9,2.9,0,0,1,.765,2.224q0,5.063-6.513,11.5a5.278,5.278,0,0,1-2.839.773q-2.944,0-3.92-2.153l-.149-.923v-.378a11.393,11.393,0,0,1,1.23-5.37l2-4.685Q-72.176,42.869-71.525,42.869Zm12.753.545h.949q4.421,0,5.713,2.54a1.622,1.622,0,0,1,.4,1.028v.079q0,1.327-3.647,2.777v.079q1.74,1.529,1.74,2.294v.475q0,1.925-11.971,5.713l-1.661.4-.088-.079.088-.079V58.4q-.4,0-.4-.158l-.079-.316.8-.316v-.079h-.079l-1.037.158v-.158q.554-.079.554-.237h-.079l-.475.158-.079-.079h-.079l-.475.079h-.079v-.079l.158-.237v-.079h-.079l-.4.079-.079-.079v-.079a2.144,2.144,0,0,1,1.266-.642l-.158-.791A81.043,81.043,0,0,1-62.5,46.666a2.165,2.165,0,0,1-1.986-.791q-.308-.088-.633-1.116,0-.958,3.568-1.187Zm-.4,4.6a32.924,32.924,0,0,0,4.043-1.661q0-.237-1.828-.237h-1.107A7.277,7.277,0,0,0-59.168,48.011Zm-4.043,6.425v.079a20.323,20.323,0,0,0,5.783-2.7h-1.5q-2.936,0-2.936.554ZM-43.77,43.15a.264.264,0,0,0,.3.3V43.6H-43.7v.079q.378,0,.378.149v.079h-.3q0,.229.448.229v.149H-43.4v.07h.905l.686.378-.079.079v.07q.378,0,.378.158,0,.272-2.795.6a12.5,12.5,0,0,0-3.612,1.055l-.835,1.661h.079a11.334,11.334,0,0,1,2.338-.229l.149.229-.229.079v.07q.606,0,.606.149l-.378.158v.07h.149l-.07.229q0,.378.6.606v.07l-.07.079v.07q.378,0,.378.158v.07q0,.229-4.755,1.2-.589,0-1.512,2.268l5.432-.905v.149h.079l.378-.079q.1.378.378.378v.229a.525.525,0,0,0-.378.229h-.158v.07h.457v.158h-.378l.079.07v.079l-.079.07q1.116,0,1.2.378l-.07.079q.378.053.378.229a18.826,18.826,0,0,1-4.526,1.125q-4.526.765-4.526,1.362a1.151,1.151,0,0,1-.677.677h-.079l-.448-.378h-.158l-.378.079q0-.193-.747-.378l-.229.07-.079-.07v-.079l.079-.229h-.149l-.079.079h-.07l-.079-.079v-.07q.624-2.241,5.581-12.674,0-.756,1.055-.905l2.944.079Zm6.864-.536h.686q5.124,0,6.047,3.366l.079.466v.229q0,1.011-4.6,3.366a35.252,35.252,0,0,1,1.151,6.812l.079.079V57l-.079.237.079.686-.079.079h-.149q0-.308-.158-.308,0,.229-.149.229h-.158l-.07-.079H-34.3q-.114.308-.229.308l-.387-.079-.149.158q-.053-.387-.387-.387a42.219,42.219,0,0,1-2.136-6.583l-3.445,1.151q-.475,1.081-.765,1.222l-.079.387h-.229l.308-.844V53.1h-.079l-.387.844.158.158q-.29,0-1.151,1.6-.105.009-.457,1-.158,0-.765,1.529h-.079q0-.352-.765-.615l-.149.158q0-.158-.237-.158l-.229.079q-.167-.413-.457-.457V57q0-1.854,4.21-10.257-1.608-1.09-1.608-1.758v-.378q.062-.4,2.83-1.38Q-40.579,42.614-36.905,42.614Zm-2.452,6.047h.158q4.6-1.969,5.581-3.138v-.079l-1.529-.07H-35.3q-2.909,0-2.909.686A16.233,16.233,0,0,1-39.357,48.661Zm26.481-6.179h.167a1.714,1.714,0,0,1,.984.571l.079.079h.079l-.079.325.079.984q-.132,1.31-.9,1.31h-.492a20.176,20.176,0,0,0-8.007,2.206v.158h.079q5.941.492,6.539,1.635a1.223,1.223,0,0,1,.571,1.151q-.22,2.689-.65,2.689A16.058,16.058,0,0,1-18.51,55.8q-3.366,1.151-9.237,2.619l-.079-.079V58.25l.571-.237v-.167l-.9.167v-.088q0-.185.4-.246v-.158h-.246v-.167h.167v-.079l-.492-.167.079-.079v-.246q-.325,0-.325-.246l-.079.079h-.167v-.079l.079-.079v-.079h-.158q0-.167-.246-.167v-.079q0-.413,6.618-2.294A28.743,28.743,0,0,0-17.446,51.8q-6.952-.457-6.952-1.477a1.725,1.725,0,0,1-.817-1.547,3.827,3.827,0,0,1,.984-2.206Q-18.255,42.482-12.876,42.482ZM-27.5,57.028v.079h.167v-.079ZM-3.911,43.15a.264.264,0,0,0,.3.3V43.6h-.229v.079q.378,0,.378.149v.079h-.3q0,.229.448.229v.149h-.229v.07h.905l.686.378-.079.079v.07q.378,0,.378.158,0,.272-2.795.6A12.5,12.5,0,0,0-8.06,46.692l-.835,1.661h.079a11.334,11.334,0,0,1,2.338-.229l.149.229-.229.079v.07q.606,0,.606.149l-.378.158v.07h.149l-.07.229q0,.378.6.606v.07l-.07.079v.07q.378,0,.378.158v.07q0,.229-4.755,1.2-.589,0-1.512,2.268l5.432-.905v.149H-6.1l.378-.079q.1.378.378.378v.229a.525.525,0,0,0-.378.229H-5.88v.07h.457v.158H-5.8l.079.07v.079l-.079.07q1.116,0,1.2.378l-.07.079q.378.053.378.229a18.826,18.826,0,0,1-4.526,1.125q-4.526.765-4.526,1.362a1.151,1.151,0,0,1-.677.677H-14.1l-.448-.378H-14.7l-.378.079q0-.193-.747-.378l-.229.07-.079-.07v-.079l.079-.229h-.149l-.079.079h-.07l-.079-.079v-.07q.624-2.241,5.581-12.674,0-.756,1.055-.905l2.944.079Zm4.2.176H.773a2.538,2.538,0,0,1,2.268,1.292v.325A18.063,18.063,0,0,1,1.5,47.694l-3.56,7.365a5.3,5.3,0,0,1-.976,1.459l-.079-.088H-3.19l-.167.4h-.158l.158-.562-.888,1.459h-.079l-.079-.079v-.088l.079-.079v-.158H-4.4l-.325.729H-4.9v-.088l.167-.4-1.3,1.055-.237-.158.079-.088v-.237l-.246.158-.158-.158q0-1.063,5.827-13.843Q-.413,43.326.29,43.326ZM-1.2,53.855v.132h-.07v-.132ZM14.757,42.816h.554a2.07,2.07,0,0,1,1.74.949V44l-3.006,7.743a31.379,31.379,0,0,0-2.215,5.774l-.237.237h-.237l-.316-.237-.079.079h-.4l-.4-.237-.791.079-.633-.712v-.554A6.268,6.268,0,0,1,9.3,54.515l-2.048-4.9-.633-1.9H6.539L3.375,54.356a9.281,9.281,0,0,0-.791,2.61l.079.079v.079q-.132.633-.316.633H2.109l-.791-.475H1.16l-.316.079-.237-.079-.158.158-.079-.079H.29l-.079.079L-.5,56.492v-.316q0-1.424,3.718-8.692l1.9-4.034A6.407,6.407,0,0,1,7.8,42.975q.536,0,1.107.791v.079q0,2.241,2.057,6.636A31.93,31.93,0,0,0,13.412,44q.272-1.028.949-1.028Q14.361,42.834,14.757,42.816Zm11.4-.65h.466q2.039.747,2.039,1.96-.527.861-4.228,8.833l-.624,1.1,4.852-.316.624.079h.466v.158h-.229v.237h.466v.158l-.782.387.158.466h.466l.7.712q0,.211-4.614.853-1.951.4-5.317,1.336h-.079q-.431,0-1.485-1.257v-.079l.079-.07-.079-.079v-.782q0-.4.7-.94a79.726,79.726,0,0,0,5.317-11.575l-.079-.237Q25.471,42.166,26.156,42.166Zm13.86.984a.264.264,0,0,0,.3.3V43.6h-.229v.079q.378,0,.378.149v.079h-.3q0,.229.448.229v.149h-.229v.07h.905l.686.378-.079.079v.07q.378,0,.378.158,0,.272-2.795.6a12.5,12.5,0,0,0-3.612,1.055l-.835,1.661h.079a11.334,11.334,0,0,1,2.338-.229l.149.229-.229.079v.07q.606,0,.606.149l-.378.158v.07h.149l-.07.229q0,.378.6.606v.07l-.07.079v.07q.378,0,.378.158v.07q0,.229-4.755,1.2-.589,0-1.512,2.268l5.432-.905v.149h.079l.378-.079q.1.378.378.378v.229a.525.525,0,0,0-.378.229h-.158v.07H38.5v.158h-.378l.079.07v.079l-.079.07q1.116,0,1.2.378l-.07.079q.378.053.378.229a18.826,18.826,0,0,1-4.526,1.125q-4.526.765-4.526,1.362a1.151,1.151,0,0,1-.677.677H29.83l-.448-.378h-.158l-.378.079q0-.193-.747-.378l-.229.07-.079-.07v-.079l.079-.229h-.149l-.079.079h-.07l-.079-.079v-.07q.624-2.241,5.581-12.674,0-.756,1.055-.905l2.944.079Zm5.827.264h.949q4.421,0,5.713,2.54a1.622,1.622,0,0,1,.4,1.028v.079q0,1.327-3.647,2.777v.079q1.74,1.529,1.74,2.294v.475q0,1.925-11.971,5.713l-1.661.4-.088-.079.088-.079V58.4q-.4,0-.4-.158l-.079-.316.8-.316v-.079H37.6l-1.037.158v-.158q.554-.079.554-.237h-.079l-.475.158-.079-.079H36.4l-.475.079h-.079v-.079l.158-.237v-.079H35.93l-.4.079-.079-.079v-.079a2.144,2.144,0,0,1,1.266-.642l-.158-.791a81.043,81.043,0,0,1,5.555-8.877,2.165,2.165,0,0,1-1.986-.791q-.308-.088-.633-1.116,0-.958,3.568-1.187Zm-.4,4.6a32.924,32.924,0,0,0,4.043-1.661q0-.237-1.828-.237H46.556A7.277,7.277,0,0,0,45.448,48.011Zm-4.043,6.425v.079a20.323,20.323,0,0,0,5.783-2.7h-1.5q-2.936,0-2.936.554ZM60.847,43.15a.264.264,0,0,0,.3.3V43.6h-.229v.079q.378,0,.378.149v.079H61q0,.229.448.229v.149h-.229v.07h.905l.686.378-.079.079v.07q.378,0,.378.158,0,.272-2.795.6A12.5,12.5,0,0,0,56.7,46.692l-.835,1.661h.079a11.334,11.334,0,0,1,2.338-.229l.149.229-.229.079v.07q.606,0,.606.149l-.378.158v.07h.149l-.07.229q0,.378.6.606v.07l-.07.079v.07q.378,0,.378.158v.07q0,.229-4.755,1.2-.589,0-1.512,2.268l5.432-.905v.149h.079l.378-.079q.1.378.378.378v.229a.525.525,0,0,0-.378.229h-.158v.07h.457v.158h-.378l.079.07v.079l-.079.07q1.116,0,1.2.378l-.07.079q.378.053.378.229a18.826,18.826,0,0,1-4.526,1.125q-4.526.765-4.526,1.362a1.151,1.151,0,0,1-.677.677H50.66l-.448-.378h-.158l-.378.079q0-.193-.747-.378l-.229.07-.079-.07v-.079l.079-.229h-.149l-.079.079H48.4l-.079-.079v-.07q.624-2.241,5.581-12.674,0-.756,1.055-.905l2.944.079Zm12.894-.334h.554a2.07,2.07,0,0,1,1.74.949V44l-3.006,7.743a31.379,31.379,0,0,0-2.215,5.774l-.237.237h-.237l-.316-.237-.079.079h-.4l-.4-.237-.791.079-.633-.712v-.554a6.268,6.268,0,0,1,.554-1.661l-2.048-4.9-.633-1.9h-.079l-3.164,6.636a9.281,9.281,0,0,0-.791,2.61l.079.079v.079q-.132.633-.316.633h-.237l-.791-.475h-.158l-.316.079-.237-.079-.158.158-.079-.079h-.079l-.079.079-.712-.949v-.316q0-1.424,3.718-8.692l1.9-4.034a6.407,6.407,0,0,1,2.681-.475q.536,0,1.107.791v.079q0,2.241,2.057,6.636A31.93,31.93,0,0,0,72.4,44q.272-1.028.949-1.028Q73.345,42.834,73.74,42.816ZM-34.44,70.755l.167.422h.088l.079-.088h.088l.079.088-.079.079v.088l.167.167a30.029,30.029,0,0,1-3.357,4.271,81.6,81.6,0,0,0-6.117,8.631q-.36,1.336-1.169,1.336h-.334a3.214,3.214,0,0,1-2.435-1.081l.167-.756-1.758-9.22-.668-3.1v-.079a1.2,1.2,0,0,1,1-.668,3.5,3.5,0,0,1,2.18.835,2.512,2.512,0,0,1,.844,2.18q.105.026,1,6.029h.088l2-2.593a2.474,2.474,0,0,0,.923-1.178h.088l.079.088h.088l.756-.756.079.079v-.079l-.079-.255.246-.167h.088l.079.422.167-.167-.079-.334h.079l-.079-.255a1.162,1.162,0,0,1,.5-.668h.088l.079.079h.088l.167-.167V74.1l-.088.088v.079h.088l.923-1.169h.079v.079l-.589.756v.5l.923-1,.088.088h.079v-.167h.088l-.167-.422.079-.088h.088l.079.088h.088l.835-.668.088.079v.088l-.422.413v.088h.167Q-34.765,70.781-34.44,70.755Zm8.534.4a.264.264,0,0,0,.3.3V71.6h-.229v.079q.378,0,.378.149v.079h-.3q0,.229.448.229v.149h-.229v.07h.905l.686.378-.079.079v.07q.378,0,.378.158,0,.272-2.795.6a12.5,12.5,0,0,0-3.612,1.055l-.835,1.661h.079a11.334,11.334,0,0,1,2.338-.229l.149.229-.229.079v.07q.606,0,.606.149l-.378.158v.07h.149l-.07.229q0,.378.6.606v.07l-.07.079v.07q.378,0,.378.158v.07q0,.229-4.755,1.2-.589,0-1.512,2.268l5.432-.905v.149h.079l.378-.079q.1.378.378.378v.229a.525.525,0,0,0-.378.229h-.158v.07h.457v.158H-27.8l.079.07v.079l-.079.07q1.116,0,1.2.378l-.07.079q.378.053.378.229a18.826,18.826,0,0,1-4.526,1.125q-4.526.765-4.526,1.362a1.151,1.151,0,0,1-.677.677h-.079l-.448-.378H-36.7l-.378.079q0-.193-.747-.378l-.229.07-.079-.07v-.079l.079-.229H-38.2l-.079.079h-.07l-.079-.079v-.07q.624-2.241,5.581-12.674,0-.756,1.055-.905l2.944.079Zm6.864-.536h.686q5.124,0,6.047,3.366l.079.466v.229q0,1.011-4.6,3.366a35.252,35.252,0,0,1,1.151,6.812l.079.079V85l-.079.237.079.686-.079.079h-.149q0-.308-.158-.308,0,.229-.149.229h-.158l-.07-.079h-.079q-.114.308-.229.308l-.387-.079-.149.158q-.053-.387-.387-.387a42.219,42.219,0,0,1-2.136-6.583l-3.445,1.151q-.475,1.081-.765,1.222l-.079.387h-.229l.308-.844V81.1h-.079l-.387.844.158.158q-.29,0-1.151,1.6-.105.009-.457,1-.158,0-.765,1.529H-26.7q0-.352-.765-.615l-.149.158q0-.158-.237-.158l-.229.079q-.167-.413-.457-.457V85q0-1.854,4.21-10.257-1.608-1.09-1.608-1.758v-.378q.062-.4,2.83-1.38Q-22.715,70.614-19.042,70.614Zm-2.452,6.047h.158q4.6-1.969,5.581-3.138v-.079l-1.529-.07h-.149q-2.909,0-2.909.686A16.233,16.233,0,0,1-21.494,76.661Zm13.034-6.5h.466q2.039.747,2.039,1.96-.527.861-4.228,8.833l-.624,1.1,4.852-.316.624.079h.466v.158h-.229v.237h.466v.158l-.782.387.158.466h.466l.7.712q0,.211-4.614.853-1.951.4-5.317,1.336h-.079q-.431,0-1.485-1.257v-.079l.079-.07-.079-.079v-.782q0-.4.7-.94A79.726,79.726,0,0,0-9.558,71.344l-.079-.237Q-9.145,70.166-8.459,70.166Zm14.933.686h.088q.835,0,1.688,1.608l.088.088v.4q0,.378-1.266.65v.079a7.38,7.38,0,0,1,1.942,4.509v.4q0,5.2-4.482,6.688a10.3,10.3,0,0,1-2.531.4H1.068q-3.937,0-5.669-4.025-.246-.053-.334-1.45v-.571q0-3.9,5.66-7.084A14.434,14.434,0,0,1,6.473,70.852Zm-8.279,9.51v.079q0,1.4,1.775,1.608H.646q2.733,0,5.071-3.138a7.488,7.488,0,0,0,.5-2.18,3.676,3.676,0,0,0-.246-1.371l.079-.237q-.229-1.213-.334-1.213-2.487.334-5.748,3.226A4.77,4.77,0,0,0-1.806,80.361Zm18.141-9.747h.686q5.124,0,6.047,3.366l.079.466v.229q0,1.011-4.6,3.366A35.252,35.252,0,0,1,19.7,84.853l.079.079V85l-.079.237.079.686L19.7,86h-.149q0-.308-.158-.308,0,.229-.149.229h-.158l-.07-.079h-.079q-.114.308-.229.308l-.387-.079-.149.158q-.053-.387-.387-.387a42.219,42.219,0,0,1-2.136-6.583L12.2,80.414q-.475,1.081-.765,1.222l-.079.387h-.229l.308-.844V81.1H11.36l-.387.844.158.158q-.29,0-1.151,1.6-.105.009-.457,1-.158,0-.765,1.529H8.679q0-.352-.765-.615l-.149.158q0-.158-.237-.158L7.3,85.7q-.167-.413-.457-.457V85q0-1.854,4.21-10.257-1.608-1.09-1.608-1.758v-.378q.062-.4,2.83-1.38Q12.661,70.614,16.334,70.614Zm-2.452,6.047h.158q4.6-1.969,5.581-3.138v-.079l-1.529-.07h-.149q-2.909,0-2.909.686A16.233,16.233,0,0,1,13.882,76.661Zm16.98-5.511a.264.264,0,0,0,.3.3V71.6h-.229v.079q.378,0,.378.149v.079h-.3q0,.229.448.229v.149h-.229v.07h.905l.686.378-.079.079v.07q.378,0,.378.158,0,.272-2.795.6a12.5,12.5,0,0,0-3.612,1.055l-.835,1.661h.079a11.334,11.334,0,0,1,2.338-.229l.149.229-.229.079v.07q.606,0,.606.149l-.378.158v.07H28.6l-.07.229q0,.378.6.606v.07l-.07.079v.07q.378,0,.378.158v.07q0,.229-4.755,1.2-.589,0-1.512,2.268L28.6,80.73v.149h.079l.378-.079q.1.378.378.378v.229a.525.525,0,0,0-.378.229h-.158v.07h.457v.158h-.378l.079.07v.079l-.079.07q1.116,0,1.2.378l-.07.079q.378.053.378.229a18.826,18.826,0,0,1-4.526,1.125q-4.526.765-4.526,1.362a1.151,1.151,0,0,1-.677.677h-.079l-.448-.378H20.07l-.378.079q0-.193-.747-.378l-.229.07-.079-.07v-.079l.079-.229h-.149l-.079.079h-.07l-.079-.079v-.07q.624-2.241,5.581-12.674,0-.756,1.055-.905l2.944.079Zm12.894-.334h.554a2.07,2.07,0,0,1,1.74.949V72l-3.006,7.743a31.379,31.379,0,0,0-2.215,5.774l-.237.237h-.237l-.316-.237-.079.079h-.4l-.4-.237-.791.079-.633-.712v-.554a6.268,6.268,0,0,1,.554-1.661l-2.048-4.9-.633-1.9h-.079l-3.164,6.636a9.281,9.281,0,0,0-.791,2.61l.079.079v.079q-.132.633-.316.633h-.237l-.791-.475H30.16l-.316.079-.237-.079-.158.158-.079-.079H29.29l-.079.079-.712-.949v-.316q0-1.424,3.718-8.692l1.9-4.034a6.407,6.407,0,0,1,2.681-.475q.536,0,1.107.791v.079q0,2.241,2.057,6.636A31.93,31.93,0,0,0,42.412,72q.272-1.028.949-1.028Q43.361,70.834,43.756,70.816Zm2.672,11.021h.246a1.4,1.4,0,0,1,1.063.721v.088A5.942,5.942,0,0,1,46.639,84H46.6q-.255-.088-.255-.211l-.044.044h-.044a1.086,1.086,0,0,1-.888-.466v-.132a2.817,2.817,0,0,1,.765-1.354Z" transform="matrix(0.966, -0.259, 0.259, 0.966, 77.125, 32.795)" fill="#fff"/>
</svg>
