<svg xmlns="http://www.w3.org/2000/svg" width="156.97" height="130.23" viewBox="0 0 156.97 130.23">
  <g id="Gruppe_1" data-name="Gruppe 1" transform="translate(-2.379 -9.54)">
    <path id="Pfad_2" data-name="Pfad 2" d="M-60.72-16.049h.473a2.791,2.791,0,0,1,2.438,1.59l.086.376q0,.784-2.062,4.694a17.362,17.362,0,0,0-2.159,7.777v.279A13.562,13.562,0,0,0-58-5.178q3.566-4.544,4.222-6.563l.559-1.214a.247.247,0,0,0,.279-.279l.1-.1h.193v.376h.086q.258-1.59.473-1.59h.1v.376h.086v-.752h.193v.279a3.127,3.127,0,0,0,.838-1.407h.1a3.55,3.55,0,0,1,.935,2.718q0,6.188-7.96,14.062a6.451,6.451,0,0,1-3.47.945q-3.6,0-4.791-2.632l-.183-1.128v-.462a13.924,13.924,0,0,1,1.5-6.563l2.438-5.726Q-61.515-16.049-60.72-16.049Zm26.823-.064h.677a2.529,2.529,0,0,1,2.127,1.16v.29L-34.767-5.2a38.352,38.352,0,0,0-2.707,7.058l-.29.29h-.29l-.387-.29-.1.1h-.483l-.483-.29-.967.1-.773-.87V.215a7.66,7.66,0,0,1,.677-2.03l-2.5-5.983-.773-2.32h-.1l-3.867,8.11a11.344,11.344,0,0,0-.967,3.19l.1.1v.1q-.161.773-.387.773h-.29l-.967-.58h-.193l-.387.1-.29-.1-.193.193-.1-.1h-.1l-.1.1L-52.545.6V.215q0-1.74,4.544-10.624l2.32-4.931a7.831,7.831,0,0,1,3.276-.58q.655,0,1.354.967v.1q0,2.739,2.514,8.11a39.026,39.026,0,0,0,3-7.917q.333-1.257,1.16-1.257Q-34.38-16.092-33.9-16.113Zm11.129-.483,1.923.1h1.923a.856.856,0,0,1,.816.516l-.107.1q.5.032.5.3v.107h-1.106v.1h.4v.2h-.193l.1.107-.1.1v.2l.5.1v.107l-.107.1v.107q.612,0,.612.806.408.054.408.3v.2l-5.983.709q-.763,0-1.214,1.923Q-29.74,0-30.782,2.857a1.672,1.672,0,0,1-1.01.612l-.408-.408q-.6,0-.6-.5l-.107.107h-.1q-.021-.258-1.01-.913l-.312-.516q0-2.041,4.866-10.839l.816-1.923-3.76.6a2.757,2.757,0,0,1-2.836-1.923l-.3-1.214v-.2a1.555,1.555,0,0,1,.806-1.214h1.321A82.789,82.789,0,0,0-22.768-16.6Zm16.672.892a.323.323,0,0,0,.365.365v.183H-6.01v.1q.462,0,.462.183v.1h-.365q0,.279.548.279v.183h-.279v.086h1.106l.838.462-.1.1v.086q.462,0,.462.193,0,.333-3.416.73a15.276,15.276,0,0,0-4.415,1.289l-1.021,2.03h.1a13.853,13.853,0,0,1,2.857-.279l.183.279-.279.1v.086q.741,0,.741.183l-.462.193V-8.7h.183l-.086.279q0,.462.73.741v.086l-.086.1v.086q.462,0,.462.193v.086q0,.279-5.812,1.472-.72,0-1.848,2.771L-8.868-4v.183h.1l.462-.1q.118.462.462.462v.279a.642.642,0,0,0-.462.279H-8.5V-2.8h.559v.193h-.462l.1.086v.1l-.1.086q1.364,0,1.472.462l-.086.1q.462.064.462.279-.816.526-5.532,1.375-5.532.935-5.532,1.665a1.406,1.406,0,0,1-.827.827h-.1l-.548-.462h-.193l-.462.1q0-.236-.913-.462l-.279.086-.1-.086v-.1l.1-.279h-.183l-.1.1h-.086l-.1-.1V1.074q.763-2.739,6.821-15.49,0-.924,1.289-1.106l3.6.1Zm8.39-.655h.838q6.263,0,7.391,4.114l.1.569v.279q0,1.235-5.618,4.114A43.086,43.086,0,0,1,6.408,1.042l.1.1v.086l-.1.29.1.838-.1.1H6.225q0-.376-.193-.376,0,.279-.183.279H5.656l-.086-.1h-.1q-.14.376-.279.376l-.473-.1-.183.193q-.064-.473-.473-.473A51.6,51.6,0,0,1,1.456-5.79L-2.755-4.383q-.58,1.321-.935,1.493l-.1.473h-.279l.376-1.031v-.1h-.1l-.473,1.031.193.193q-.354,0-1.407,1.955Q-5.6-.354-6.032.859q-.193,0-.935,1.869h-.1q0-.43-.935-.752l-.183.193q0-.193-.29-.193l-.279.1q-.2-.5-.559-.559v-.29q0-2.267,5.146-12.536-1.966-1.332-1.966-2.148v-.462q.075-.494,3.459-1.687Q-2.2-16.36,2.293-16.36ZM-.7-8.97H-.51Q5.108-11.376,6.311-12.8v-.1l-1.869-.086H4.259Q.7-12.987.7-12.149A19.84,19.84,0,0,1-.7-8.97Zm28.026-6.553H27.8a11.754,11.754,0,0,1,6.875,2.234,3.512,3.512,0,0,1,1.3,2.417q0,2.621-5.479,7.992A29.079,29.079,0,0,1,24.723.473,15.4,15.4,0,0,0,20.63,2.052l-1.021-.1a7.9,7.9,0,0,1-2.138.838l-.1-.1.279-.462h-.086l-.559.183-.1-.559.183-.365H17.01l-.462.183-.1-.1V1.493l.1-.279h-.1l-.376.1q-.279,0-.279-.376Q15.334.87,15.334.655a3.114,3.114,0,0,1,1.214-.741Q18.138-1.3,20.91-7.713a25.078,25.078,0,0,0,1.676-4.372q-1.687,0-2.6-2.224Q19.986-15.093,27.323-15.522ZM23.241-3.062q7.9-3.685,7.9-6.972,0-2.159-3.437-2.7-.688,0-1.021,1.665Zm24.03-12.644a.323.323,0,0,0,.365.365v.183h-.279v.1q.462,0,.462.183v.1h-.365q0,.279.548.279v.183h-.279v.086h1.106l.838.462-.1.1v.086q.462,0,.462.193,0,.333-3.416.73A15.276,15.276,0,0,0,42.2-11.376L41.18-9.346h.1a13.853,13.853,0,0,1,2.857-.279l.183.279-.279.1v.086q.741,0,.741.183l-.462.193V-8.7H44.5l-.086.279q0,.462.73.741v.086l-.086.1v.086q.462,0,.462.193v.086q0,.279-5.812,1.472-.72,0-1.848,2.771L44.5-4v.183h.1l.462-.1q.118.462.462.462v.279a.642.642,0,0,0-.462.279h-.193V-2.8h.559v.193h-.462l.1.086v.1l-.1.086q1.364,0,1.472.462l-.086.1q.462.064.462.279-.816.526-5.532,1.375-5.532.935-5.532,1.665a1.406,1.406,0,0,1-.827.827h-.1L34.273,1.9H34.08l-.462.1q0-.236-.913-.462l-.279.086-.1-.086v-.1l.1-.279h-.183l-.1.1H32.06l-.1-.1V1.074q.763-2.739,6.821-15.49,0-.924,1.289-1.106l3.6.1Zm8.39-.655H56.5q6.263,0,7.391,4.114l.1.569v.279q0,1.235-5.618,4.114a43.086,43.086,0,0,1,1.407,8.325l.1.1v.086l-.1.29.1.838-.1.1h-.183q0-.376-.193-.376,0,.279-.183.279h-.193l-.086-.1h-.1q-.14.376-.279.376l-.473-.1-.183.193q-.064-.473-.473-.473a51.6,51.6,0,0,1-2.61-8.046L50.612-4.383q-.58,1.321-.935,1.493l-.1.473H49.3l.376-1.031v-.1h-.1l-.473,1.031.193.193q-.354,0-1.407,1.955-.129.011-.559,1.225-.193,0-.935,1.869h-.1q0-.43-.935-.752l-.183.193q0-.193-.29-.193l-.279.1q-.2-.5-.559-.559v-.29q0-2.267,5.146-12.536-1.966-1.332-1.966-2.148v-.462q.075-.494,3.459-1.687Q51.17-16.36,55.661-16.36Zm-3,7.391h.193q5.618-2.406,6.821-3.835v-.1l-1.869-.086h-.183q-3.556,0-3.556.838A19.84,19.84,0,0,1,52.664-8.97ZM-53.6,6.828h1.9q8.842,0,11.426,5.08a3.244,3.244,0,0,1,.791,2.057v.158q0,2.654-7.295,5.555v.158q3.48,3.059,3.48,4.588v.949q0,3.85-23.941,11.426l-3.322.791-.176-.158.176-.158V36.8q-.809,0-.809-.316l-.158-.633,1.6-.633v-.158h-.158l-2.074.316v-.316q1.107-.158,1.107-.475h-.158l-.949.316-.158-.158h-.158l-.949.158h-.158v-.158l.316-.475v-.158h-.158l-.791.158-.158-.158v-.158a4.288,4.288,0,0,1,2.531-1.283l-.316-1.582q1.336-3.27,11.109-17.754-2.988,0-3.973-1.582-.615-.176-1.266-2.232,0-1.916,7.137-2.373Zm-.791,9.193A65.847,65.847,0,0,0-46.31,12.7q0-.475-3.656-.475h-2.215Q-54.4,15.459-54.4,16.021Zm-8.086,12.85v.158q8.121-2.707,11.566-5.4h-3.006q-5.871,0-5.871,1.107ZM-30.1,5.229h1.371q10.248,0,12.094,6.732l.158.932v.457q0,2.021-9.193,6.732,2.3,9.756,2.3,13.623l.158.158V34l-.158.475.158,1.371-.158.158h-.3q0-.615-.316-.615,0,.457-.3.457H-24.6l-.141-.158H-24.9q-.229.615-.457.615l-.773-.158-.3.316q-.105-.773-.773-.773a84.438,84.438,0,0,1-4.271-13.166l-6.891,2.3q-.949,2.162-1.529,2.443l-.158.773h-.457l.615-1.687V26.2h-.158l-.773,1.688.316.316q-.58,0-2.3,3.2-.211.018-.914,2-.316,0-1.529,3.059h-.158q0-.7-1.529-1.23l-.3.316q0-.316-.475-.316l-.457.158q-.334-.826-.914-.914V34q0-3.709,8.42-20.514-3.217-2.18-3.217-3.516V9.219q.123-.809,5.66-2.76Q-37.45,5.229-30.1,5.229Zm-4.9,12.094h.316q9.193-3.937,11.162-6.275v-.158l-3.059-.141h-.3q-5.818,0-5.818,1.371A32.465,32.465,0,0,1-35.007,17.322ZM-10.608.359h.422a2.321,2.321,0,0,1,1.758,1.2V1.7a9.512,9.512,0,0,1-1.828,2.25h-.07q-.422-.141-.422-.352l-.07.07h-.07a1.8,1.8,0,0,1-1.477-.773V2.68A4.7,4.7,0,0,1-11.1.43Zm6.75,0a2.58,2.58,0,0,1,2.039,1.2v.07A7.671,7.671,0,0,1-3.507,4.156h-.211l-.352-.281-.352.07-.141-.281-.281.211h-.352a1.169,1.169,0,0,1-.562-.914q.686-2.6,1.617-2.6ZM-16.515,5.738h.773a4.566,4.566,0,0,1,3.99,2.6l.141.615q0,1.283-3.375,7.682a28.41,28.41,0,0,0-3.533,12.727v.457a22.193,22.193,0,0,0,6.451-6.293q5.836-7.436,6.908-10.74l.914-1.986a.4.4,0,0,0,.457-.457l.158-.158h.316V10.8h.141q.422-2.6.773-2.6h.158v.615H-2.1V7.584h.316v.457a5.116,5.116,0,0,0,1.371-2.3h.158a5.81,5.81,0,0,1,1.529,4.447q0,10.125-13.025,23.01a10.556,10.556,0,0,1-5.678,1.547q-5.889,0-7.84-4.307l-.3-1.846v-.756a22.785,22.785,0,0,1,2.461-10.74l3.99-9.369Q-17.815,5.738-16.515,5.738Zm34.137,1.02h1.143q4.254,0,6.082,2.461V10.7q0,3.129-2.3,3.129a12.694,12.694,0,0,0-3.6-.492q-12.059,0-16.576,11.479L2.03,26.463v.492q0,2.479,3.287,3.111a24.064,24.064,0,0,0,5.414.492h2.953v.334h-.668v.158q.387,0,.826.65H14v.492l-1.793.176v.158h.316l-.316.984h.316v.334h-.316V34a.575.575,0,0,1,.65.65h.334l-.176-.158v-.158l.176-.176h.984V34.5l.158.158-.158.176h-.492v.158l.316.334h.492l-.158-.176v-.158l.492-.158.492.158q0,1.477-11.479,1.477-7.242,0-10.178-7.049V27.271Q-6.337,19.66,4,11.029A23.2,23.2,0,0,1,17.622,6.758ZM14,31.209h.984v.334H14ZM31.456,5.7h.457q.949,0,2.76,1.986l.457,1.23v.3q0,1.2-2.145,4.148h.141l13.8-7.049h.158q0,.3-.457.3v.158h.3L48,6.318l.158.141v.158l.158-.158h.756q0,.316-.457.316l.158.457,1.072-.158L47.856,8.92l-.475.158v.141l1.688-.3q0,.264-1.213.773l.3.3.158-.158h.141l.475.158v.158l-.316.457q.773,0,.773.615L37.433,18.113v.158a119.485,119.485,0,0,1,2.76,14.256q.3,0,.457,1.828l-1.846.773-.158-.158H38.5l-1.687.773q-3.533-2.619-3.533-5.678L31.3,21.787H31.14q-5.168,2.813-5.361,4.307l-2.461,3.832q-.387,0-1.371,2.145h-.3v-.158l.141-.615v-.158h-.141l-.158.457-.158-.141h-.158l-.756.914v.158h.141l.615-.932h.158v.316a1.147,1.147,0,0,1-1.23.914,14.176,14.176,0,0,0-1.687,4.447h-.457a.544.544,0,0,0-.615-.615l-.914-.3-.158-.158h-.141l-.773.158a.544.544,0,0,0-.615-.615l-.457-1.072q2.3-6.732,11.039-22.078Q29.47,6.09,31.456,5.7Zm-9.668,24.82H22.1l.3-.6v-.158h-.158Q21.981,29.768,21.788,30.523ZM66.454,6.3a.528.528,0,0,0,.6.6v.3h-.457v.158q.756,0,.756.3v.158h-.6q0,.457.9.457v.3h-.457v.141H69l1.371.756-.158.158v.141q.756,0,.756.316,0,.545-5.59,1.2-1.9,0-7.225,2.109l-1.67,3.322h.158a22.668,22.668,0,0,1,4.676-.457l.3.457-.457.158v.141q1.213,0,1.213.3l-.756.316v.141h.3l-.141.457q0,.756,1.2,1.213v.141l-.141.158v.141q.756,0,.756.316v.141q0,.457-9.51,2.408-1.178,0-3.023,4.535l10.863-1.811v.3h.158l.756-.158q.193.756.756.756v.457a1.05,1.05,0,0,0-.756.457h-.316v.141h.914v.316h-.756l.158.141v.158l-.158.141q2.232,0,2.408.756l-.141.158q.756.105.756.457-1.336.861-9.053,2.25-9.053,1.529-9.053,2.725a2.3,2.3,0,0,1-1.354,1.354h-.158l-.9-.756h-.316l-.756.158q0-.387-1.494-.756l-.457.141L42,34.514v-.158l.158-.457h-.3l-.158.158h-.141l-.158-.158v-.141Q42.653,29.275,52.567,8.41q0-1.512,2.109-1.811l5.889.158Z" transform="matrix(0.966, -0.259, 0.259, 0.966, 81.067, 84.21)" fill="#fff"/>
    <path id="Pfad_1" data-name="Pfad 1" d="M-9.442-1.794l.881-.9a.469.469,0,0,1,.312-.15.549.549,0,0,1,.333.172l.859.924a.539.539,0,0,1,.129.312.515.515,0,0,1-.15.333l-.859.945q-.215.215-.312.215A.418.418,0,0,1-8.562-.1l-.945-1.085a.457.457,0,0,1-.107-.279A.487.487,0,0,1-9.442-1.794Zm7.337,0,.881-.9a.469.469,0,0,1,.312-.15.549.549,0,0,1,.333.172l.859.924a.539.539,0,0,1,.129.312.515.515,0,0,1-.15.333L-.6-.161Q-.816.054-.913.054A.418.418,0,0,1-1.225-.1L-2.17-1.182a.457.457,0,0,1-.107-.279A.487.487,0,0,1-2.105-1.794Zm7.337,0,.881-.9a.469.469,0,0,1,.312-.15.549.549,0,0,1,.333.172l.859.924a.539.539,0,0,1,.129.312.515.515,0,0,1-.15.333l-.859.945q-.215.215-.312.215A.418.418,0,0,1,6.112-.1L5.167-1.182a.457.457,0,0,1-.107-.279A.487.487,0,0,1,5.231-1.794ZM-52.642,15.93h.107q1.021,0,2.063,1.966l.107.107v.483q0,.462-1.547.795v.1a9.019,9.019,0,0,1,2.374,5.511v.494q0,6.359-5.479,8.175a12.589,12.589,0,0,1-3.094.494h-1.139q-4.812,0-6.929-4.92-.3-.064-.408-1.772v-.7q0-4.77,6.918-8.658A17.642,17.642,0,0,1-52.642,15.93ZM-62.761,27.553v.1q0,1.708,2.17,1.966h.827q3.341,0,6.2-3.835a9.152,9.152,0,0,0,.612-2.664,4.493,4.493,0,0,0-.3-1.676l.1-.29q-.279-1.482-.408-1.482-3.04.408-7.025,3.942Q-62.761,25.716-62.761,27.553Zm22.5-11.075h.473a11.754,11.754,0,0,1,6.875,2.234,3.512,3.512,0,0,1,1.3,2.417q0,2.621-5.479,7.992a29.079,29.079,0,0,1-5.769,3.352,15.4,15.4,0,0,0-4.093,1.579l-1.021-.1a7.9,7.9,0,0,1-2.138.838l-.1-.1.279-.462h-.086l-.559.183-.1-.559.183-.365h-.086l-.462.183-.1-.1v-.086l.1-.279h-.1l-.376.1q-.279,0-.279-.376-.462-.064-.462-.279a3.114,3.114,0,0,1,1.214-.741q1.59-1.214,4.361-7.627a25.078,25.078,0,0,0,1.676-4.372q-1.687,0-2.6-2.224Q-47.593,16.907-40.256,16.478Zm-4.082,12.461q7.9-3.685,7.9-6.972,0-2.159-3.437-2.7-.687,0-1.021,1.665Zm24.03-12.644a.323.323,0,0,0,.365.365v.183h-.279v.1q.462,0,.462.183v.1h-.365q0,.279.548.279v.183h-.279v.086h1.106l.838.462-.1.1v.086q.462,0,.462.193,0,.333-3.416.73a15.276,15.276,0,0,0-4.415,1.289l-1.021,2.03h.1a13.853,13.853,0,0,1,2.857-.279l.183.279-.279.1v.086q.741,0,.741.183l-.462.193V23.3h.183l-.086.279q0,.462.73.741v.086l-.086.1v.086q.462,0,.462.193v.086q0,.279-5.812,1.472-.72,0-1.848,2.771L-23.08,28v.183h.1l.462-.1q.118.462.462.462v.279a.642.642,0,0,0-.462.279h-.193V29.2h.559v.193h-.462l.1.086v.1l-.1.086q1.364,0,1.472.462l-.086.1q.462.064.462.279-.816.526-5.532,1.375-5.532.935-5.532,1.665a1.406,1.406,0,0,1-.827.827h-.1l-.548-.462H-33.5l-.462.1q0-.236-.913-.462l-.279.086-.1-.086v-.1l.1-.279h-.183l-.1.1h-.086l-.1-.1v-.086q.763-2.739,6.821-15.49,0-.924,1.289-1.106l3.6.1Zm8.39-.655h.838q6.263,0,7.391,4.114l.1.569V20.6q0,1.235-5.618,4.114A43.086,43.086,0,0,1-7.8,33.042l.1.1v.086l-.1.29.1.838-.1.1h-.183q0-.376-.193-.376,0,.279-.183.279h-.193l-.086-.1h-.1q-.14.376-.279.376l-.473-.1-.183.193q-.064-.473-.473-.473a51.6,51.6,0,0,1-2.61-8.046l-4.211,1.407q-.58,1.321-.935,1.493l-.1.473h-.279l.376-1.031v-.1H-18l-.473,1.031.193.193q-.354,0-1.407,1.955-.129.011-.559,1.225-.193,0-.935,1.869h-.1q0-.43-.935-.752l-.183.193q0-.193-.29-.193l-.279.1q-.2-.5-.559-.559v-.29q0-2.267,5.146-12.536-1.966-1.332-1.966-2.148v-.462q.075-.494,3.459-1.687Q-16.409,15.64-11.918,15.64Zm-3,7.391h.193Q-9.1,20.624-7.9,19.2v-.1l-1.869-.086h-.183q-3.556,0-3.556.838A19.84,19.84,0,0,1-14.916,23.03ZM5.774,15.812h.483q1.106,0,1.934,1.45L8,21.129a6.01,6.01,0,0,0,.483,2.621,11.141,11.141,0,0,0,1.944-1.944,37.619,37.619,0,0,0,3.867-3.771Q15.625,16.2,17.01,16.2l.677-.1q.945.215,1.063.58.215,0,.87.773v.193q0,.978-2.814,7.165-.956,2.32-1.257,2.32l.1.1v.1l-1.257,2.514a16.34,16.34,0,0,0-1.547,3.2l-.677.87h-.677v-.193l-.387.193q0-.215-.677-.387l-.193.193q-.269-.032-.387-.483-.387,0-.387-.193v-.677q0-1.88,2.9-7.262a19.057,19.057,0,0,0-2.9,3.48q-.322,0-.881.58h-.1a4.847,4.847,0,0,0-1.934-.87q-.978-.666-1.74-3.964h-.1Q.489,34.02.059,34.4H-.134l-.483-.29-.29.1-.1-.1-.1.1-.193-.387-.193.193-.1-.1-.87.193q-.215-.526-.58-.58v-.387q0-2.32,5.521-13.17Q3.787,16,4.614,16Zm17.606.7h.591a3.1,3.1,0,0,1,2.771,1.579v.4a22.077,22.077,0,0,1-1.88,3.362l-4.351,9a6.473,6.473,0,0,1-1.192,1.783l-.1-.107h-.1l-.2.494h-.193l.193-.687-1.085,1.783h-.1l-.1-.1v-.107l.1-.1v-.193h-.1l-.4.892h-.2v-.107l.2-.494L15.657,35.2l-.29-.193.1-.107v-.29l-.3.193-.193-.193q0-1.3,7.122-16.919Q22.521,16.51,23.38,16.51ZM21.565,29.379v.161h-.086v-.161ZM35.5,15.4l1.923.1h1.923a.856.856,0,0,1,.816.516l-.107.1q.5.032.5.3v.107H39.451v.1h.4v.2h-.193l.1.107-.1.1v.2l.5.1v.107l-.107.1v.107q.612,0,.612.806.408.054.408.3v.2l-5.983.709q-.763,0-1.214,1.923Q28.526,32,27.484,34.857a1.672,1.672,0,0,1-1.01.612l-.408-.408q-.6,0-.6-.5l-.107.107h-.1q-.021-.258-1.01-.913l-.312-.516q0-2.041,4.866-10.839l.816-1.923-3.76.6a2.757,2.757,0,0,1-2.836-1.923l-.3-1.214v-.2a1.555,1.555,0,0,1,.806-1.214h1.321A82.789,82.789,0,0,0,35.5,15.4Zm22.881.5h1.214l.086.086.086-.086q1.225,0,1.225.43l.344.172q0,.462-1.042.526,0,.258-.172.258v.269q.43,0,.43.172t-.258.172v.172h.43l-.086.354.086.258q-.666.236-10,1.128l-1.311,2.524v.172h.1a19.264,19.264,0,0,1,4-.43,2.458,2.458,0,0,1,2.181,1.386q.333,0,.516,1.912,0,1.934-9.045,5.4l-2.61.784-2.7.43-.44-.086h-.687l-.526-.172q0-.354-.44-.354,0-.258-.344-.258a.3.3,0,0,0-.344-.344V30.7l.086-.1v-.086h-.269v-.172h.269l-.172-.172h-.526V30a10.1,10.1,0,0,0,2.084-.784q3.459,0,11.312-3.652,0-.14.7-.44v-.086h-.086a17.339,17.339,0,0,0-7.133,1.912h-.258q-1.311-1.1-1.311-1.654h.086l-.086-.258q0-.387,1.4-1.3a22.138,22.138,0,0,1,2.17-4.437l.612-1.923q1.149-1.214,1.568-1.214h.344l.784.172Q55.747,15.908,58.378,15.908ZM63.5,15.9h.086a1.889,1.889,0,0,1,1.74,1.128q.2.032.6.526.666.161,2.353,2.61a2.653,2.653,0,0,1,.956,1.912v.612q0,2.589-3.824,6.263Q61.762,32,58.357,32a6.094,6.094,0,0,1-2.61-.87l-.87-.7q-1.74-1.439-1.74-2.61-.172-.021-.258-.612v-.784q0-3.556,6.7-9.131A9.982,9.982,0,0,1,63.5,15.9ZM55.661,28.079q0,.376,1.826.526,3.7,0,7.4-4.437a10.352,10.352,0,0,0,1.568-3.395,1.413,1.413,0,0,0-.87-1.4l-.526-.344h-.086q-2.245.129-5.393,3.126Q55.875,25.759,55.661,28.079Z" transform="matrix(0.966, -0.259, 0.259, 0.966, 67.432, 30.21)" fill="#fff"/>
  </g>
</svg>
