<?xml version="1.0" encoding="utf-8"?>
<!-- Generator: Adobe Illustrator 25.4.1, SVG Export Plug-In . SVG Version: 6.00 Build 0)  -->
<svg version="1.1" id="Ebene_1" xmlns="http://www.w3.org/2000/svg" xmlns:xlink="http://www.w3.org/1999/xlink" x="0px" y="0px"
	 viewBox="0 0 166.2 161.2" style="enable-background:new 0 0 166.2 161.2;" xml:space="preserve">
<style type="text/css">
	.st0{fill:#FFFFFF;}
</style>
<g id="Gruppe_3" transform="translate(1.923 -7.273)">
	<path id="Pfad_4" class="st0" d="M43.2,58l0.5-0.1c2.4-0.8,5,0,6.6,2c0.3,2.2,0.3,3.3-0.2,3.5l-0.2,0c-1.1,0.2-2.3,0.1-3.4-0.1
		l-3.1,0.5c-5.5,1.5-9.6,5-12.1,10.6c-1,2.5-1.2,5.2-0.5,7.8c0.4,1.4,1.6,1.8,3.8,1.3c1.8-0.6,3.6-1.5,5.1-2.7l0-0.1l-0.2,0L35,82.2
		c-0.1-0.3-0.6-0.5-1.5-0.7l0.1-0.2l0-0.2l-0.9,0.2L32.6,81l0.9-0.4l0-0.1l-1.3,0.2l-0.1-0.3l0.4-0.1l0-0.1l-0.8,0.2l0-0.2l0.2-0.5
		c-0.7,0.2-1.1,0.2-1.2,0c-0.2-0.7,5.7-3.8,17.5-9.3c1.2-0.3,2.2,0.2,3.1,1.4l0.3,0.4c0.3,1-0.1,2.4-1.2,3.9c0.3,1-1.7,3.7-6,8.1
		c-1.8,1.8-4,3.1-6.5,3.8l-1.4,0.4c-4.5,1.2-8.2-0.3-11-4.5l-0.5-1.3l-0.2-0.9c-1-3.7,0.7-8.8,5-15.5C33.4,62.1,38,59.3,43.2,58z
		 M65.7,51.6c0,0.3,0.3,0.5,0.6,0.4c0,0,0.1,0,0.1,0l0.1,0.3L66,52.4l0,0.1c0.5-0.1,0.7-0.1,0.8,0.1l0,0.1l-0.5,0.1
		c0.1,0.3,0.4,0.3,0.9,0.2l0.1,0.3l-0.4,0.1l0,0.1l1.7-0.4l1.4,0.4l-0.1,0.2l0,0.1c0.5-0.1,0.7-0.1,0.8,0.1c0.1,0.3-1.5,1.2-4.8,2.5
		c-1.2,0.3-3.2,1.5-6.1,3.7l-0.7,3.4l0.1,0c1.3-0.7,2.7-1.2,4.2-1.6l0.4,0.3l-0.4,0.3l0,0.1c0.7-0.2,1.1-0.2,1.2,0l-0.6,0.5l0,0.1
		l0.3-0.1l0,0.5c0.1,0.5,0.6,0.7,1.4,0.8l0,0.1l-0.1,0.2l0,0.1c0.5-0.1,0.7-0.1,0.8,0.1l0,0.1c0.1,0.3-2.6,1.8-8.1,4.5
		c-0.7,0.2-1.3,1.8-1.6,4.9l9.5-4.3l0.1,0.3l0.1,0l0.7-0.3c0.2,0.4,0.5,0.6,0.9,0.5l0.1,0.4c-0.3,0.1-0.5,0.3-0.6,0.6l-0.3,0.1
		l0,0.1l0.8-0.2l0.1,0.3l-0.7,0.2l0.2,0.1l0,0.1l-0.1,0.2c1.4-0.4,2.2-0.3,2.4,0.1l-0.1,0.2c0.5-0.1,0.7,0,0.8,0.2
		c-0.7,0.7-3.2,2.2-7.7,4.3c-5.3,2.4-7.8,4-7.6,4.7c-0.1,0.6-0.4,1.2-0.9,1.6l-0.1,0l-1-0.5l-0.3,0.1l-0.7,0.3
		c-0.1-0.2-0.6-0.3-1.5-0.3l-0.4,0.2l-0.2-0.1l0-0.1l0-0.5L50,82.8L49.9,83l-0.1,0l-0.2-0.1l0-0.1c0-2.9,1.4-11.5,4-25.9
		c-0.2-0.9,0.2-1.6,1.5-2.2l5.4-1.3L65.7,51.6z M76.5,46.8l0.9-0.2c2.7,0.2,4.3,1.1,4.7,2.6c-0.4,1.2-1.5,7.3-3.4,18.2L78,69.7
		l8.7-3l1.2-0.2l0.9-0.2l0.1,0.3l-0.4,0.1l0.1,0.4l0.9-0.2l0.1,0.3l-1.2,1.1l0.5,0.8l0.9-0.2l1.6,1c0.1,0.3-2.6,1.5-8,3.8
		c-2.2,1.1-5.3,2.8-9,5l-0.1,0c-0.5,0.1-1.6-0.4-3.3-1.6l0-0.1l0.1-0.2l-0.2-0.1l-0.4-1.4c-0.1-0.5,0.1-1.2,0.8-2.1
		c2-7.8,3.3-15.7,4-23.7l-0.3-0.4C75.1,47.8,75.6,47,76.5,46.8z M96.9,43.6l0.7-0.2c3.7-1,7.6-0.8,11.2,0.6c1.3,0.6,2.4,1.7,2.9,3.1
		c0.7,2.6-1,7.3-5,14.1c-2.1,2.7-4.6,5.2-7.3,7.3c-3,1.8-4.9,3.2-5.5,4l-1.6,0.3c-0.8,0.8-1.8,1.5-2.9,2.1l-0.2-0.1l0.2-0.8l-0.1,0
		l-0.8,0.5l-0.4-0.8l0.1-0.6l-0.1,0l-0.6,0.5l-0.2-0.1l0-0.1l0-0.5l-0.1,0l-0.5,0.3c-0.3,0.1-0.5-0.1-0.6-0.4
		c-0.5,0.1-0.7,0-0.8-0.2c0.4-0.6,0.9-1.2,1.5-1.6c1.3-1.6,2.4-6,3.5-13.1c0.6-4.3,0.9-6.7,0.8-7.2c-1.7,0.4-3.3-0.3-4.8-2.3
		C86.2,47.5,89.7,46,96.9,43.6z M95.8,63.8c6.9-5.8,9.9-10.3,9-13.6c-0.6-2.1-2.6-3-6.2-2.6c-0.7,0.2-1,1.1-0.9,2.9L95.8,63.8z
		 M41.9,95.4c1.5-0.4,2.6-0.2,3.1,0.6c0.4,0.7,1.1,2.3,2,4.6l0.1,0.1c0.1,0.4,0.3,0.5,0.4,0.5l2.5-1l0,0.2l0.1,0l1.2-0.4l0,0.2
		l-0.5,0.3l0,0.1l0.6-0.1L52,100l0,0.2c-0.4,0.3-0.8,0.5-1.2,0.7l0,0.2l0.4-0.2c0.4,0,0.6,0.1,0.6,0.2l0.4-0.2
		c1.1-0.3,1.6-0.3,1.7-0.1l-0.1,0.1l0.6,0l0,0.2c-1.3,0.9-2.7,1.6-4.2,2.1l-1.4,0.6c1,1.6,1.8,3.4,2.5,5.2l0.1,0.3l-0.2,0.3l-0.1,0
		c-0.2,0-0.4,0-0.6-0.1l0.1,0.2l-0.2,0l0-0.2l-0.2,0.2l-0.4-0.2l-0.7,0.5l-0.8-0.5c-1-1.4-1.8-2.8-2.4-4.4l-0.1,0
		c-3.1,1.8-4.6,3-4.4,3.5c-0.5,0.9-0.9,1.9-1.2,3c-0.2,0.5-0.5,0.8-0.7,0.9l-0.3-0.4l-0.1,0.1l-0.1,0c-0.4-0.1-0.6-0.3-0.7-0.5
		l-0.1,0.1l-0.2,0l0-0.2c-0.2,0.1-0.5,0-0.8-0.3c-0.2,0.1-0.3,0-0.4-0.1L37,111c-0.2-0.6,0.2-1.7,1.1-3.4c0.3-1,0.8-2.5,1.6-4.4
		l1.4-5.5l0.1-1.7C41.4,95.7,41.6,95.5,41.9,95.4z M43.3,103.2L43.3,103.2c0.9-0.4,1.3-0.7,1.2-0.8l-0.6-1.2
		C43.7,101.9,43.4,102.6,43.3,103.2L43.3,103.2z M50.3,99.9l0.2,0l0,0.2l-0.2,0L50.3,99.9z M50.6,100.4L50.6,100.4l0.2,0l0-0.1
		L50.6,100.4z M52.6,92.1L53,92c0.9-0.2,1.9,0.1,2.5,0.8l0.2,0.3c0.1,0.5-0.1,2-0.7,4.6c-0.6,2.4-0.6,4.9-0.1,7.3l0.1,0.2
		c1.1-1.2,2-2.7,2.6-4.3c1.4-3.2,2.1-5.5,2.2-6.8l0.2-1.2c0.1,0,0.2-0.1,0.2-0.2c0,0,0,0,0-0.1l0.1-0.1l0.2,0l0.1,0.3l0.1,0
		c-0.1-1-0.1-1.5,0-1.5l0.1,0l0.1,0.3l0.1,0L60.6,91l0.2,0l0.1,0.2c0.3-0.4,0.4-0.9,0.4-1.4l0.1,0c0.8,0.5,1.3,1.3,1.5,2.2
		c1,3.6-0.3,8.4-3.7,14.2c-0.8,0.8-1.7,1.4-2.8,1.6c-2.1,0.6-3.7,0.2-4.8-1.2l-0.4-0.9l-0.1-0.4c-0.6-2-0.7-4.1-0.2-6.1l0.8-5.6
		C51.8,92.7,52.1,92.2,52.6,92.1L52.6,92.1z M75,86.4c0,0.1,0.3,0.2,0.7,0.2c0.1,0.2,0.2,0.3,0.6,0.3l0,0.1l-0.1,0.1l0,0.1
		c0.2-0.1,0.4,0,0.4,0.1l-0.1,0.1c0.3-0.1,0.7,0.1,1.3,0.6c0.1,0.2-2.9,1.5-8.8,3.7c-0.6,0.2-0.9,0.7-0.8,1.7
		c-0.1,0-0.1,0.5-0.2,1.5l0.1,0l2.3-0.8c0.4,0.3,0.6,0.4,0.8,0.4l0.1,0.5l0.3,0.2l0,0.1l-0.3,0.1l0,0.1l0.1,0l0.5-0.2l0.6,0l0,0.1
		l-0.1,0.1l0,0.1c0.4,0,0.6,0,0.6,0.1c-0.6,0.8-2.5,1.9-5.7,3.6c-0.9,4.4-1.5,6.9-1.7,7.5c-0.5,0.1-0.7,0.3-0.6,0.5l-0.1,0l-0.3-0.1
		l0.1-0.1l-0.1-0.4l-0.2,0c0,0.2,0,0.3-0.1,0.3c-0.1-0.3-0.3-0.4-0.6-0.3l0,0.1c0,0.3,0,0.5-0.1,0.5l-0.1-0.1l-0.1,0l-0.1,0.2
		l-0.5-0.3c-0.1,0.1-0.3,0-0.3-0.1c0,0,0,0,0-0.1c-0.3-1.1,0-3.6,0.9-7.7c0.8-4.1,1.1-6.8,0.7-8.1c0.2-1,0.6-1.5,1-1.6l1.5,0
		C69.4,88.1,72.2,87.2,75,86.4L75,86.4z M85.1,83.9l0.4-0.1c2.2-0.6,4.5-0.5,6.6,0.3c0.8,0.3,1.4,1,1.7,1.8c0.4,1.5-0.6,4.3-2.9,8.3
		c-1.3,1.6-2.7,3-4.3,4.3c-1.2,0.6-2.3,1.4-3.2,2.3l-0.9,0.2c-0.5,0.5-1.1,0.9-1.7,1.2l-0.1-0.1l0.1-0.5l-0.1,0l-0.4,0.3l-0.2-0.5
		l0.1-0.4l-0.1,0l-0.4,0.3l-0.1-0.1l0-0.1l0-0.3l-0.1,0l-0.3,0.2c-0.2,0-0.3,0-0.3-0.3c-0.3,0-0.4,0-0.5-0.1
		c0.2-0.4,0.5-0.7,0.9-0.9c0.7-1,1.4-3.5,2-7.7c0.3-1.4,0.4-2.8,0.4-4.2c-1,0.3-1.9-0.2-2.8-1.3C78.8,86.2,80.8,85.3,85.1,83.9
		L85.1,83.9z M84.4,95.8c4-3.4,5.8-6.1,5.3-8c-0.3-1.3-1.6-1.8-3.7-1.6c-0.4,0.1-0.6,0.7-0.5,1.7L84.4,95.8z M102.5,79
		c0,0.2,0.2,0.3,0.3,0.3c0,0,0.1,0,0.1,0l0,0.2l-0.2,0.1l0,0.1c0.3-0.1,0.4-0.1,0.4,0.1l0,0.1l-0.3,0.1c0,0.2,0.2,0.2,0.5,0.1l0,0.2
		l-0.2,0.1l0,0.1l1-0.3l0.8,0.2l-0.1,0.1l0,0.1c0.3-0.1,0.4-0.1,0.5,0.1c0.1,0.2-0.9,0.7-2.8,1.4c-1.3,0.5-2.5,1.3-3.6,2.2l-0.4,2
		l0.1,0c0.8-0.4,1.6-0.7,2.4-0.9l0.2,0.2l-0.2,0.2l0,0.1c0.4-0.1,0.7-0.1,0.7,0l-0.4,0.3l0,0.1l0.2,0l0,0.3c0.1,0.3,0.3,0.4,0.8,0.5
		l0,0.1l-0.1,0.1l0,0.1c0.3-0.1,0.4-0.1,0.5,0.1l0,0.1c0,0.2-1.5,1.1-4.8,2.7c-0.4,0.1-0.7,1.1-1,2.9l5.6-2.5l0,0.2l0.1,0l0.4-0.2
		c0.1,0.3,0.3,0.4,0.5,0.3l0.1,0.2c-0.2,0.1-0.3,0.2-0.3,0.4l-0.2,0l0,0.1l0.5-0.1l0,0.2l-0.4,0.1l0.1,0.1l0,0.1l-0.1,0.1
		c0.8-0.2,1.3-0.2,1.4,0.1l-0.1,0.1c0.3,0,0.4,0,0.5,0.1c-1.4,1-2.9,1.9-4.5,2.5c-3.1,1.4-4.6,2.3-4.5,2.8c0,0.4-0.2,0.7-0.5,0.9
		l-0.1,0l-0.6-0.3l-0.2,0l-0.4,0.2c0-0.1-0.3-0.2-0.9-0.2l-0.2,0.1l-0.1-0.1l0-0.1l0-0.3l-0.2,0l-0.1,0.1l-0.1,0l-0.1-0.1l0-0.1
		c0-1.7,0.8-6.8,2.3-15.2c-0.1-0.5,0.1-1,0.9-1.3l3.2-0.8L102.5,79z M108.4,77l0.4-0.1c0.6-0.2,1.3,0.1,2,0.8l0.7,3.4
		c0.2,0.8,0.5,1.5,1,2.2c0.5-0.7,0.9-1.4,1.2-2.2c0.9-1.3,1.8-2.8,2.5-4.2c0.3-1,1-1.9,2-2.3l0.6-0.2c0.6,0,0.9,0.1,1.1,0.3
		c0.1,0,0.4,0.1,0.9,0.5l0,0.2c0.2,0.6-0.1,2.9-0.8,7c-0.2,1.5-0.4,2.3-0.6,2.3l0.1,0.1l0,0.1l-0.5,2.5c-0.3,1-0.5,2.1-0.6,3.2
		l-0.4,0.9l-0.6,0.2l0-0.2l-0.3,0.3c0-0.1-0.3-0.2-0.7-0.2l-0.1,0.2c-0.2,0-0.3-0.1-0.5-0.3c-0.2,0.1-0.4,0-0.4-0.1l-0.2-0.6
		c-0.3-1.1,0-3.5,0.8-7.1c-0.7,1.2-1.3,2.4-1.7,3.7c-0.2,0.1-0.4,0.3-0.6,0.7l-0.1,0c-0.6-0.2-1.3-0.3-1.9-0.3
		c-0.7-0.2-1.5-1.3-2.5-3.1l-0.1,0c-1,6.3-1.5,9.6-1.7,9.9l-0.2,0l-0.5-0.1l-0.2,0.2l-0.1-0.1l-0.1,0.1l-0.3-0.3l-0.1,0.2l-0.1-0.1
		l-0.7,0.4c-0.2-0.3-0.4-0.4-0.6-0.4l-0.1-0.3c-0.4-1.4,0.2-5.6,1.7-12.9c0.1-2.5,0.5-3.8,0.9-4L108.4,77z M23.7,126.7l0.2-0.1
		c0.3-0.1,0.9,0.1,1.8,0.7l0.4,0.6l0,0.2c0,0.9-0.2,1.7-0.6,2.5l0.1,0l6.4-5.8l0.1,0c0,0.1,0,0.2-0.2,0.2l0,0.1l0.2,0l0.5-0.4
		l0.1,0.1l0,0.1l0.1-0.1l0.4-0.1c0,0.1,0,0.2-0.2,0.2l0.2,0.2l0.6-0.2l-0.8,1.3l-0.2,0.2l0,0.1l0.9-0.4c0,0.1-0.2,0.3-0.5,0.6
		l0.2,0.1l0.1-0.1l0.1,0l0.3,0l0,0.1l-0.1,0.3c0.3-0.1,0.4,0,0.5,0.2l-5.4,5.4l0,0.1c1.3,2.3,2.5,4.8,3.5,7.3c0.1,0,0.3,0.3,0.5,0.9
		l-0.9,0.7l-0.1-0.1l-0.1,0l-0.8,0.7c-1.3-0.4-2.3-1.3-2.7-2.5l-2.3-4.2l-0.1,0c-1.6,1.5-2.3,2.5-2.3,3.1l-0.8,2.4
		c-0.1,0-0.3,0.5-0.4,1.3l-0.2,0l0-0.1l0-0.4l0-0.1l-0.1,0l0,0.3L22,142l-0.1,0l-0.3,0.6l0,0.1l0.1,0l0.2-0.6l0.1,0l0,0.2
		c0,0.3-0.2,0.6-0.5,0.7c-0.2,0.9-0.3,1.7-0.3,2.6l-0.2,0.1c0-0.2-0.2-0.3-0.3-0.3c0,0-0.1,0-0.1,0l-0.5,0l-0.1-0.1l-0.1,0l-0.4,0.2
		c0-0.2-0.2-0.3-0.3-0.3c0,0-0.1,0-0.1,0l-0.4-0.5c0.6-4.5,1.5-9,2.7-13.4C22.3,128.6,23.1,127.1,23.7,126.7z M22.1,141.4l0.2,0
		l0.1-0.4l0-0.1l-0.1,0C22.2,141,22.1,141.2,22.1,141.4z M43.7,121.4L43.7,121.4c0.7-0.2,1.5,0.2,2.4,1.2l0.1,0.1l0.1,0.4
		c0.1,0.3-0.3,0.6-1.2,1.1l0,0.1c1.6,1,2.8,2.5,3.4,4.3l0.1,0.4c1,3.7,0,6.5-2.9,8.5c-0.8,0.5-1.7,0.9-2.6,1.2l-1,0.3
		c-2.8,0.8-5.2-0.1-7.2-2.7c-0.2,0-0.4-0.5-0.8-1.5l-0.2-0.6c-0.7-2.8,0.6-5.9,4-9.2C39.6,123.3,41.6,122.1,43.7,121.4z M37.5,134
		L37.5,134c0.3,1.1,1.1,1.5,2.4,1.3l0.7-0.2c2-0.5,3.5-2.1,4.5-4.8c0.1-0.8,0.1-1.7-0.1-2.5c-0.1-0.5-0.4-1-0.7-1.4l0-0.3
		c-0.4-0.8-0.6-1.2-0.7-1.2c-1.7,0.7-3.5,2.4-5.2,5.1C37.7,131.2,37.3,132.6,37.5,134L37.5,134z M60.7,116.8l0.6-0.2
		c0.8-0.2,1.6,0,2.1,0.5l0.1,0.3l-1,9.2c-0.5,2.2-0.7,4.5-0.7,6.8l-0.2,0.3l-0.3,0.1l-0.4-0.2l-0.1,0.1l-0.4,0.1l-0.5-0.1l-0.8,0.3
		l-0.9-0.6l-0.2-0.6c-0.1-0.6,0-1.3,0.1-1.9l-3.6-4.7l-1.2-1.9l-0.1,0l-1.5,8c-0.2,1-0.2,2-0.1,3l0.1,0.1l0,0.1c0,0.5,0,0.7-0.2,0.8
		l-0.3,0.1l-1-0.3l-0.2,0l-0.3,0.2l-0.3,0l-0.1,0.2l-0.1-0.1l-0.1,0l-0.1,0.1l-1-0.8l-0.1-0.3c-0.3-1,0.2-4.5,1.5-10.4l0.9-4.9
		c0.8-0.6,1.7-1.1,2.7-1.3c0.4-0.1,0.9,0.1,1.4,0.5l0,0.1c0.4,1.6,1.8,3.8,4.1,6.5c0.5-2.5,0.8-5.1,0.8-7.7c0-0.8,0.2-1.2,0.7-1.4
		C60.3,117,60.4,116.9,60.7,116.8L60.7,116.8z M70.4,113.7l1.7-0.4l1.7-0.5c0.3-0.1,0.6,0,0.8,0.3l-0.1,0.1c0.3-0.1,0.5,0,0.5,0.1
		l0,0.1l-1,0.3l0,0.1l0.3-0.1l0,0.2l-0.2,0l0.1,0.1l-0.1,0.1l0,0.2l0.5,0l0,0.1l-0.1,0.1l0,0.1c0.4-0.1,0.6,0.1,0.7,0.6
		c0.2,0,0.4,0,0.4,0.2l0,0.2l-5.1,2c-0.4,0.1-0.6,0.8-0.6,2c-1.5,6.9-2.3,11.3-2.5,13.2c-0.1,0.3-0.4,0.6-0.7,0.8l-0.5-0.3
		c-0.4,0.1-0.6,0-0.6-0.3L66,133l-0.1,0c-0.1-0.1-0.4-0.3-1.1-0.6l-0.4-0.4c-0.3-1.2,0.3-4.7,1.7-10.7l0.3-1.9l-3.2,1.4
		c-1.1,0.4-2.3,0-2.9-1l-0.5-1l0-0.2c-0.1-0.5,0.1-0.9,0.4-1.3l1.2-0.3C64.4,116.3,67.4,115.1,70.4,113.7L70.4,113.7z M84.3,111
		L84.3,111c0.7-0.2,1.5,0.2,2.4,1.2l0.1,0.1l0.1,0.4c0.1,0.3-0.3,0.6-1.2,1.1l0,0.1c1.6,1,2.8,2.5,3.4,4.3l0.1,0.4
		c1,3.7,0,6.5-2.9,8.5c-0.8,0.5-1.7,0.9-2.6,1.2l-1,0.3c-2.8,0.8-5.2-0.1-7.2-2.7c-0.2,0-0.4-0.5-0.8-1.5l-0.2-0.6
		c-0.7-2.8,0.6-5.9,4-9.2C80.2,112.9,82.2,111.7,84.3,111z M78.1,123.6L78.1,123.6c0.3,1.1,1.1,1.5,2.4,1.3l0.7-0.2
		c2-0.5,3.5-2.1,4.5-4.8c0.1-0.8,0.1-1.7-0.1-2.5c-0.1-0.5-0.4-1-0.7-1.4l0-0.3c-0.4-0.8-0.6-1.2-0.7-1.2c-1.7,0.7-3.5,2.4-5.2,5.1
		C78.3,120.7,77.9,122.2,78.1,123.6z M100.7,105.3l0.5-0.1c1.6,0.1,2.5,0.6,2.8,1.5c-0.2,0.7-0.9,4.3-2,10.7l-0.4,1.4l5.1-1.7
		l0.7-0.1l0.5-0.1l0,0.2l-0.2,0.1l0.1,0.3l0.5-0.1l0,0.2l-0.7,0.6l0.3,0.5l0.5-0.1l1,0.6c0,0.2-1.5,0.9-4.7,2.2
		c-1.3,0.7-3.1,1.6-5.3,3l-0.1,0c-0.3,0.1-1-0.2-2-0.9l0-0.1l0.1-0.1l-0.1-0.1l-0.2-0.8c-0.1-0.3,0.1-0.7,0.5-1.2
		c1.2-4.6,2-9.2,2.4-14l-0.2-0.2C99.9,105.9,100.2,105.4,100.7,105.3z M109.7,100.6l0.2-0.1c0.4-0.1,0.8,0.1,1.1,0.4l0,0.1
		c-0.1,0.5-0.4,1-0.7,1.5l0,0c-0.2,0-0.3-0.1-0.3-0.1l0,0l0,0c-0.3,0.1-0.7,0-0.9-0.2l0-0.1c0-0.5,0.1-1,0.4-1.4L109.7,100.6z
		 M113.3,99.6c0.5-0.1,0.9,0,1.3,0.3l0,0c-0.1,0.6-0.3,1.1-0.5,1.6l-0.1,0l-0.2-0.1l-0.2,0.1l-0.1-0.1l-0.1,0.2l-0.2,0.1
		c-0.2-0.1-0.4-0.2-0.4-0.4c0-1,0.2-1.5,0.5-1.6L113.3,99.6z M111.5,103.6c1.5-0.4,2.6-0.2,3.1,0.6c0.4,0.7,1.1,2.3,2,4.6l0.1,0.1
		c0.1,0.4,0.3,0.5,0.4,0.5l2.5-1l0,0.2l0.1,0l1.2-0.4l0,0.2l-0.5,0.3l0,0.1l0.6-0.1l0.5-0.2l0,0.2c-0.4,0.3-0.8,0.5-1.2,0.7l0,0.2
		l0.4-0.2c0.4,0,0.6,0.1,0.6,0.2l0.4-0.2c1.1-0.3,1.6-0.3,1.7-0.1l-0.1,0.1l0.6,0l0,0.2c-1.3,0.9-2.7,1.6-4.2,2.1l-1.4,0.6
		c1,1.6,1.8,3.4,2.5,5.2l0.1,0.3l-0.2,0.3l-0.1,0c-0.2,0-0.4,0-0.6-0.1l0.1,0.2l-0.2,0l0-0.2L120,118l-0.4-0.2l-0.7,0.5l-0.8-0.5
		c-1-1.4-1.8-2.8-2.4-4.4l-0.1,0c-3.1,1.8-4.6,3-4.4,3.5c-0.5,0.9-0.9,1.9-1.2,3c-0.2,0.5-0.5,0.8-0.7,0.9l-0.3-0.4l-0.1,0.1l-0.1,0
		c-0.4-0.1-0.6-0.3-0.7-0.5l-0.1,0.1l-0.2,0l0-0.2c-0.2,0.1-0.5,0-0.8-0.3c-0.2,0.1-0.3,0-0.4-0.1l-0.1-0.6
		c-0.2-0.6,0.2-1.7,1.1-3.4c0.3-1,0.8-2.5,1.6-4.4l1.4-5.5l0.1-1.7C111,103.9,111.2,103.7,111.5,103.6z M112.9,111.5L112.9,111.5
		c0.9-0.4,1.3-0.7,1.2-0.8l-0.6-1.2C113.3,110.1,113.1,110.8,112.9,111.5L112.9,111.5z M120,108.2l0.2,0l0,0.2l-0.2,0L120,108.2z
		 M120.2,108.7L120.2,108.7l0.2,0l0-0.1L120.2,108.7z M130.8,97.6l0.2,0c0.4,0,0.9,0.1,1.2,0.3l0.1,0.1l0.1,0l0,0.4l0.4,1
		c0.2,1,0,1.5-0.6,1.7l-0.5,0.1c-2.9,1-5.7,2.6-8,4.7l0,0.2l0.1,0c4.3-0.8,6.8-0.8,7.5-0.1c0.5,0.1,0.9,0.6,0.9,1.1
		c0.4,2,0.4,3,0.1,3.1c-1.1,1.4-2.3,2.6-3.8,3.5c-2.2,1.5-5.2,3.3-9.2,5.5l-0.1-0.1l0-0.1l0.5-0.4l0-0.2l-0.9,0.4l0-0.1
		c0-0.1,0.1-0.3,0.4-0.4l0-0.2l-0.3,0.1l0-0.2l0.2,0l0-0.1l-0.6,0l0.1-0.1l-0.1-0.3c-0.2,0.1-0.4,0-0.4-0.2l-0.1,0.1l-0.2,0l0-0.1
		l0.1-0.1l0-0.1l-0.2,0c0-0.1-0.1-0.2-0.3-0.1l0-0.1c-0.1-0.3,2.1-1.8,6.4-4.4c1.7-1.1,3.4-2.3,4.9-3.6c-5.1,1-7.7,1.1-7.9,0.4
		c-0.7-0.2-1.2-0.7-1.3-1.4c-0.1-0.9,0-1.8,0.4-2.6C123.3,101.2,127,98.6,130.8,97.6z M119.3,117.4L119.3,117.4l0.2,0l0-0.1
		L119.3,117.4z M141.1,94.9l0.2,0c0.4,0,0.9,0.1,1.2,0.3l0.1,0.1l0.1,0l0,0.4l0.4,1c0.2,1,0,1.5-0.6,1.7l-0.5,0.1
		c-2.9,1-5.7,2.6-8,4.7l0,0.2l0.1,0c4.3-0.8,6.8-0.8,7.5-0.1c0.5,0.1,0.9,0.6,0.9,1.1c0.4,2,0.4,3,0.1,3.1c-1.1,1.4-2.3,2.6-3.8,3.5
		c-2.2,1.5-5.2,3.3-9.2,5.5l-0.1-0.1l0-0.1l0.5-0.4l0-0.2l-0.9,0.4l0-0.1c0-0.1,0.1-0.3,0.4-0.4l0-0.2l-0.3,0.1l0-0.2l0.2,0l0-0.1
		l-0.6,0l0.1-0.1l-0.1-0.3c-0.2,0.1-0.4,0-0.4-0.2l-0.1,0.1l-0.2,0l0-0.1l0.1-0.1l0-0.1l-0.2,0c0-0.1-0.1-0.2-0.3-0.1l0-0.1
		c-0.1-0.3,2.1-1.8,6.4-4.4c1.7-1.1,3.4-2.3,4.9-3.6c-5.1,1-7.7,1.1-7.9,0.4c-0.7-0.2-1.2-0.7-1.3-1.4c-0.1-0.9,0-1.8,0.4-2.7
		C133.5,98.4,137.2,95.9,141.1,94.9z M129.6,114.7L129.6,114.7l0.2,0l0-0.1L129.6,114.7z M148.8,92.7l1.7-0.4l1.7-0.5
		c0.3-0.1,0.6,0,0.8,0.3l-0.1,0.1c0.3-0.1,0.5,0,0.5,0.1l0,0.1l-1,0.3l0,0.1l0.3-0.1l0,0.2l-0.2,0l0.1,0.1l-0.1,0.1l0,0.2l0.5,0
		l0,0.1l-0.1,0.1l0,0.1c0.4-0.1,0.6,0.1,0.7,0.6c0.2,0,0.4,0,0.4,0.2l0,0.2l-5.1,2c-0.4,0.1-0.6,0.8-0.6,2
		c-1.5,6.9-2.3,11.3-2.5,13.2c-0.1,0.3-0.4,0.6-0.7,0.8l-0.5-0.3c-0.4,0.1-0.6,0-0.6-0.3l-0.1,0.1l-0.1,0c-0.1-0.1-0.4-0.3-1.1-0.6
		l-0.4-0.4c-0.3-1.2,0.3-4.7,1.7-10.7l0.3-1.9l-3.2,1.4c-1.1,0.4-2.3,0-2.9-1l-0.5-1l0-0.2c-0.1-0.5,0.1-0.9,0.4-1.3l1.2-0.3
		C142.8,95.2,145.8,94.1,148.8,92.7z M87.1,150.1l0.6-1c0.1-0.1,0.1-0.2,0.2-0.2c0.1,0,0.2,0,0.3,0.1l1,0.6c0.1,0.1,0.2,0.1,0.2,0.2
		c0,0.1,0,0.2-0.1,0.3l-0.5,1c-0.1,0.2-0.2,0.3-0.2,0.3c-0.1,0-0.2,0-0.3-0.1l-1.1-0.7c-0.1-0.1-0.1-0.1-0.2-0.2
		C87,150.3,87.1,150.2,87.1,150.1z M93.6,148.4l0.6-1c0.1-0.1,0.1-0.2,0.2-0.2c0.1,0,0.2,0,0.3,0.1l1,0.6c0.1,0.1,0.2,0.1,0.2,0.2
		c0,0.1,0,0.2-0.1,0.3l-0.5,1c-0.1,0.2-0.2,0.3-0.2,0.3c-0.1,0-0.2,0-0.3-0.1l-1.1-0.7c-0.1-0.1-0.1-0.1-0.2-0.2
		C93.5,148.6,93.5,148.5,93.6,148.4z M100,146.6l0.6-1c0.1-0.1,0.1-0.2,0.2-0.2c0.1,0,0.2,0,0.3,0.1l1,0.6c0.1,0.1,0.2,0.1,0.2,0.2
		c0,0.1,0,0.2-0.1,0.3l-0.5,1c-0.1,0.2-0.2,0.3-0.2,0.3c-0.1,0-0.2,0-0.3-0.1l-1.1-0.7c-0.1-0.1-0.1-0.1-0.2-0.2
		C99.9,146.9,99.9,146.7,100,146.6z"/>
	<path id="Pfad_5" class="st0" d="M22.6,32.4l0.1,0.1l0,0.1l0.3-0.2c0.3,0,0.5,0.1,0.5,0.3l0.1,0l0-0.3c1-0.1,1.5,0,1.6,0.1l0,0.3
		l0.1-0.1l0.1,0l0.3,0l0,0.1c0.1,0.5-0.7,3.5-2.5,9.1l-2.7,10l-0.3,2c-0.3,0.5-0.8,0.8-1.3,1c-1.8,0.1-2.8-0.1-2.9-0.4
		c-1.2-0.6-2.1-2.1-2.7-4.5c-0.8,1.5-1.3,3.1-1.6,4.7c-0.1,1.4-0.7,2.3-1.6,2.5c-0.4,0.1-0.9,0.1-1.3-0.1l-0.1,0.1l-0.1,0
		c-0.1,0-0.4-0.1-0.7-0.3c-0.5,0.1-1.4-1.4-2.7-4.6c-0.7-2-1.3-4-1.8-6l-1.2-5.5c-0.2-0.6,0.4-1.1,1.5-1.6c0.9-0.1,1.8,0.1,2.6,0.6
		l0.4,0.6l0.2,0.7l0.6,4l0.4,1.4l0.3,0.6l0,0.5l0.1,0.1l0,0.5l0.1,0.4l0.2,0.4l0,0.4L8.8,50l2.8-5.8c0.2,0,0.1-0.9-0.1-2.6l0.6-0.4
		l0.1-0.3l0.7-0.1l0.3-0.1l0.7-0.3l0.1,0.1l0,0.1L14,40.9l0.5,0l0.1,0l0.3-0.3l0.1,0l0.1,0.1l0.1-0.1l0.5-0.1l0.6,0.4
		c0.2-0.1,0.3,0,0.4,0.1l-0.4,3.1l0.1,1.3l0.5,1.8l-0.1,0.1l0.4,1l0.1,0c0.7-2.2,1.4-4.3,2.3-6.4c0-0.5,0.1-0.8,0.4-0.9l-0.1-0.1
		l0-0.1c0.3-1.5,0.8-2.9,1.5-4.2c0-0.9,0.2-1.9,0.6-2.8C21.8,33.2,22,32.8,22.6,32.4z M21.3,37.7l0,0.1l0.1-0.3l0-0.1L21.3,37.7z
		 M20.8,38.8l0.1,0.3l0.1,0l-0.1-0.3L20.8,38.8z M38.6,30c0,0.2,0.2,0.3,0.4,0.3c0,0,0.1,0,0.1,0l0.1,0.2l-0.3,0.1l0,0.1
		c0.3-0.1,0.5-0.1,0.5,0.1l0,0.1L39,30.9c0.1,0.2,0.3,0.2,0.7,0.1l0.1,0.2l-0.3,0.1l0,0.1l1.2-0.3l1,0.2l-0.1,0.1l0,0.1
		c0.3-0.1,0.5-0.1,0.5,0.1c0.1,0.2-1.1,0.8-3.4,1.7c-1.6,0.6-3,1.5-4.3,2.6l-0.5,2.4l0.1,0c0.9-0.5,1.9-0.8,2.9-1.1l0.3,0.2L37,37.7
		l0,0.1c0.5-0.1,0.8-0.1,0.8,0l-0.4,0.3l0,0.1l0.2-0.1l0,0.3c0.1,0.3,0.4,0.5,1,0.6l0,0.1l-0.1,0.1l0,0.1c0.3-0.1,0.5-0.1,0.5,0.1
		l0,0.1c0.1,0.2-1.9,1.3-5.7,3.2c-0.5,0.1-0.9,1.3-1.2,3.4l6.7-3l0.1,0.2l0.1,0l0.5-0.2c0.2,0.3,0.4,0.4,0.6,0.4l0.1,0.3
		c-0.2,0.1-0.3,0.2-0.4,0.4l-0.2,0.1l0,0.1l0.6-0.2l0.1,0.2l-0.5,0.1l0.1,0.1l0,0.1l-0.1,0.1c1-0.3,1.5-0.2,1.7,0.1l-0.1,0.1
		c0.3,0,0.5,0,0.6,0.2c-0.5,0.5-2.3,1.5-5.4,3c-3.7,1.7-5.5,2.8-5.4,3.3c0,0.4-0.3,0.8-0.6,1.1l-0.1,0l-0.7-0.3l-0.2,0.1l-0.5,0.2
		c0-0.2-0.4-0.2-1.1-0.2l-0.3,0.2l-0.1-0.1l0-0.1l0-0.3L27.5,52l-0.1,0.1l-0.1,0l-0.1-0.1l0-0.1c0-2.1,1-8.2,2.8-18.3
		c-0.2-0.6,0.2-1.2,1-1.5l3.8-0.9L38.6,30z M47.2,27l0.9-0.2c4.4-1.2,7.4-0.4,9,2.2l0.3,0.6l0.1,0.3c0.2,0.9-1.4,2.8-4.8,5.9
		c1.5,2.7,2.8,5.5,3.8,8.4l0.1,0.1l0,0.1l0,0.3l0.3,0.9l-0.1,0.1l-0.2,0.1c-0.1-0.3-0.2-0.4-0.3-0.3c0.1,0.2,0,0.3-0.1,0.3L56,45.7
		l-0.1-0.1l-0.1,0c0,0.3-0.1,0.4-0.2,0.5l-0.5,0L55,46.4c-0.1-0.3-0.3-0.4-0.6-0.4c-1.9-2.4-3.6-5-5-7.7l-4,2.7
		c-0.2,1-0.3,1.6-0.6,1.8l0,0.5l-0.3,0.1l0.1-1.2l0-0.1l-0.1,0l-0.2,1.2l0.3,0.1c-0.2,0.1-0.6,0.9-0.9,2.5c-0.1,0-0.2,0.5-0.2,1.4
		c-0.1,0-0.3,0.8-0.5,2.2l-0.1,0c-0.1-0.3-0.5-0.5-1.2-0.5l-0.1,0.3c0-0.1-0.2-0.2-0.4-0.1l-0.3,0.2c-0.2-0.3-0.5-0.5-0.7-0.4
		L40,48.8c-0.4-1.6,0.2-6.5,1.9-14.7c-1.6-0.6-2.5-1.1-2.7-1.7L39,31.9c0-0.4,1-1.3,3.2-2.8C42.4,28.5,44.1,27.8,47.2,27L47.2,27z
		 M46.1,35.6l0.2-0.1c3.5-2.7,5.5-4.7,6.1-6l0-0.1l-2,0.4L50.2,30c-2.5,0.7-3.7,1.3-3.5,1.9C46.6,33.1,46.4,34.4,46.1,35.6
		L46.1,35.6z M78.1,18.5l0.2-0.1c0.5,0,1,0.1,1.5,0.4l0.1,0.1l0.1,0l0,0.4l0.4,1.2c0.2,1.2,0,1.8-0.7,2l-0.6,0.2
		c-2.7,0.7-5.9,2.6-9.6,5.6l0.1,0.2l0.1,0c5.2-0.9,8.2-1,9-0.2c0.6,0.2,1,0.7,1.1,1.3c0.4,2.4,0.5,3.6,0.1,3.7
		c-1.3,1.6-2.8,3.1-4.5,4.3c-2.6,1.8-6.3,4-11,6.6l-0.1-0.1l0-0.1l0.7-0.5l-0.1-0.2l-1.1,0.5l0-0.1c0-0.2,0.1-0.3,0.4-0.5L64.2,43
		l-0.3,0.1l-0.1-0.2l0.2-0.1l0-0.1l-0.7,0l0.1-0.1l-0.1-0.3c-0.3,0.1-0.4,0-0.5-0.2l-0.1,0.1l-0.2,0.1l0-0.1l0.1-0.1l0-0.1l-0.2,0.1
		c0-0.1-0.2-0.2-0.4-0.1l0-0.1c-0.1-0.4,2.5-2.1,7.7-5.2c3.4-2.3,5.4-3.8,5.8-4.4c-6.1,1.2-9.2,1.4-9.5,0.5
		c-0.8-0.2-1.4-0.9-1.6-1.7c-0.2-1.1,0-2.2,0.5-3.2C69.1,22.8,73.5,19.7,78.1,18.5z M64.3,42.3l0,0.1l0.2-0.1l0-0.1L64.3,42.3z
		 M89.9,16.3c0,0.2,0.2,0.3,0.4,0.3c0,0,0.1,0,0.1,0l0.1,0.2l-0.3,0.1l0,0.1c0.3-0.1,0.5-0.1,0.5,0.1l0,0.1l-0.4,0.1
		c0.1,0.2,0.3,0.2,0.7,0.1l0.1,0.2l-0.3,0.1l0,0.1l1.2-0.3l1,0.2l-0.1,0.1l0,0.1c0.3-0.1,0.5-0.1,0.5,0.1c0.1,0.2-1.1,0.8-3.4,1.7
		c-1.6,0.6-3,1.5-4.3,2.6l-0.5,2.4l0.1,0c0.9-0.5,1.9-0.8,2.9-1.1l0.3,0.2L88.3,24l0,0.1c0.5-0.1,0.8-0.1,0.8,0l-0.4,0.3l0,0.1
		l0.2-0.1l0,0.3c0.1,0.3,0.4,0.5,1,0.6l0,0.1l-0.1,0.1l0,0.1c0.3-0.1,0.5-0.1,0.5,0.1l0,0.1c0.1,0.2-1.9,1.3-5.7,3.2
		c-0.5,0.1-0.9,1.3-1.2,3.4l6.7-3l0.1,0.2l0.1,0l0.5-0.2c0.2,0.3,0.4,0.4,0.6,0.4l0.1,0.3c-0.2,0.1-0.3,0.2-0.4,0.4L91,30.4l0,0.1
		l0.6-0.2l0.1,0.2l-0.5,0.1l0.1,0.1l0,0.1L91.2,31c1-0.3,1.5-0.2,1.7,0.1l-0.1,0.1c0.3,0,0.5,0,0.6,0.2c-0.5,0.5-2.3,1.5-5.4,3
		c-3.7,1.7-5.5,2.8-5.4,3.3c0,0.4-0.3,0.8-0.6,1.1l-0.1,0l-0.7-0.3L81,38.5l-0.5,0.2c0-0.2-0.4-0.2-1.1-0.2l-0.3,0.2L79,38.6l0-0.1
		l0-0.3l-0.2,0.1l-0.1,0.1l-0.1,0l-0.1-0.1l0-0.1c0-2.1,1-8.2,2.8-18.3c-0.2-0.6,0.2-1.2,1-1.5l3.8-0.9L89.9,16.3z M95.4,15l0.6-0.2
		c1.2-0.3,2.5,0,3.4,0.9l0.1,0.4c-0.2,1.4-0.6,2.7-1,4.1l-2,10.7c-0.1,0.8-0.4,1.5-0.8,2.2l-0.1-0.1l-0.1,0l-0.1,0.6l-0.2,0.1l0-0.8
		l-0.6,2.2l-0.1,0l-0.1-0.1l0-0.1l0.1-0.1l-0.1-0.2l-0.1,0L94,35.7l-0.2,0.1l0-0.1l0.1-0.6l-1.3,1.8l-0.4-0.1l0.1-0.1l-0.1-0.3
		l-0.3,0.3l-0.3-0.1c-0.2-0.9,0.7-7.5,2.7-19.8C94.4,15.7,94.8,15.2,95.4,15L95.4,15z M97.1,29.1l0,0.2l-0.1,0L97.1,29.1L97.1,29.1z
		 M113.8,9.4l0.7-0.2c0.9-0.2,1.9,0,2.6,0.6l0.1,0.3l-1.2,11c-0.6,2.7-0.8,5.4-0.9,8.2l-0.2,0.4l-0.3,0.1l-0.5-0.2l-0.1,0.1
		l-0.5,0.1l-0.6-0.2l-1,0.4l-1.1-0.7l-0.2-0.7c-0.1-0.8,0-1.6,0.1-2.3l-4.3-5.6l-1.5-2.2l-0.1,0l-1.8,9.6c-0.2,1.2-0.3,2.4-0.1,3.6
		l0.1,0.1l0,0.1c0,0.6,0,0.9-0.2,0.9l-0.3,0.1l-1.2-0.3l-0.2,0.1l-0.4,0.2l-0.3,0l-0.1,0.3l-0.1-0.1l-0.1,0l-0.1,0.1l-1.2-1
		l-0.1-0.4c-0.3-1.2,0.3-5.4,1.8-12.5l1.1-5.9c0.3-0.4,1.4-0.9,3.3-1.5c0.5-0.1,1,0.1,1.7,0.6l0,0.1c0.5,1.9,2.2,4.5,4.9,7.8
		c0.6-3,0.9-6.1,0.9-9.2c0-0.9,0.3-1.5,0.9-1.7C113.3,9.6,113.5,9.5,113.8,9.4z"/>
</g>
</svg>
