<svg xmlns="http://www.w3.org/2000/svg" width="145.587" height="112.873" viewBox="0 0 145.587 112.873">
  <g id="Gruppe_3" data-name="Gruppe 3" transform="translate(-6.055 -20.152)">
    <path id="Pfad_4" data-name="Pfad 4" d="M-46.113-17.191q0,.176.785.445,0,.41.551.551v.117l-.105.105v.117q.434,0,.434.223l-.105.105q.527,0,1.324,1.113,0,.445-11.309,1.547-1.125,0-1.441,1.77-.141,0-.656,1.664h.105l2.883-.211q.5.656.773.656v.563l.223.328v.105h-.328v.117h.105l.668-.117.668.223v.117l-.117.105v.117q.668.141.668.328-1.336,1.066-7.758,2.332-3.668,7.16-4.324,8.1-.891,0-.891.328h-.105l-.34-.223.117-.105V2.883h-.223q0,.328-.223.328-.117-.551-.562-.551v.105q-.07.563-.328.563l-.105-.117h-.117l-.223.223-.445-.551a.3.3,0,0,1-.328-.34q0-1.992,3.434-8.648,3.328-6.656,3.328-9.2.879-1.559,1.664-1.559l1.781.445A82.99,82.99,0,0,1-46.113-17.191Zm2.59.293h.645a3.384,3.384,0,0,1,3.023,1.723v.434a24.084,24.084,0,0,1-2.051,3.668l-4.746,9.82a7.061,7.061,0,0,1-1.3,1.945l-.105-.117h-.105l-.223.539H-48.6l.211-.75L-49.57,2.309h-.105l-.105-.105V2.086l.105-.105V1.77h-.105l-.434.973h-.223V2.625l.223-.539-1.734,1.406-.316-.211.105-.117V2.848l-.328.211-.211-.211q0-1.418,7.77-18.457Q-44.461-16.9-43.523-16.9ZM-45.5-2.859v.176H-45.6v-.176Zm21.27-14.719h.738a2.759,2.759,0,0,1,2.32,1.266V-16L-25.184-5.672a41.838,41.838,0,0,0-2.953,7.7l-.316.316h-.316l-.422-.316-.105.105h-.527l-.527-.316-1.055.105L-32.25.973V.234a8.357,8.357,0,0,1,.738-2.215l-2.73-6.527-.844-2.531h-.105L-39.41-2.191a12.375,12.375,0,0,0-1.055,3.48l.105.105V1.5q-.176.844-.422.844H-41.1l-1.055-.633h-.211l-.422.105-.316-.105-.211.211-.105-.105h-.105l-.105.105L-44.578.656V.234q0-1.9,4.957-11.59l2.531-5.379q.574-.457,3.574-.633.715,0,1.477,1.055v.105q0,2.988,2.742,8.848A42.573,42.573,0,0,0-26.027-16q.363-1.371,1.266-1.371Q-24.762-17.555-24.234-17.578Zm10.535.645h.516a12.822,12.822,0,0,1,7.5,2.438,3.832,3.832,0,0,1,1.418,2.637q0,2.859-5.977,8.719A31.723,31.723,0,0,1-16.535.516,16.8,16.8,0,0,0-21,2.238l-1.113-.105a8.623,8.623,0,0,1-2.332.914l-.105-.105.3-.5h-.094l-.609.2-.105-.609.2-.4h-.094l-.5.2-.105-.105V1.629l.105-.3h-.105l-.41.105q-.3,0-.3-.41-.5-.07-.5-.3a3.4,3.4,0,0,1,1.324-.809q1.734-1.324,4.758-8.32a27.358,27.358,0,0,0,1.828-4.77q-1.84,0-2.836-2.426Q-21.7-16.465-13.7-16.934ZM-18.152-3.34q8.613-4.02,8.613-7.605,0-2.355-3.75-2.941-.75,0-1.113,1.816ZM8.063-17.133a.352.352,0,0,0,.4.4v.2h-.3v.105q.5,0,.5.2v.105h-.4q0,.3.6.3v.2h-.3v.094H9.762l.914.5-.105.105v.094q.5,0,.5.211,0,.363-3.727.8A16.665,16.665,0,0,0,2.531-12.41L1.418-10.2h.105a15.112,15.112,0,0,1,3.117-.3l.2.3-.3.105V-10q.809,0,.809.2l-.5.211v.094h.2l-.094.3q0,.5.8.809v.094l-.094.105v.094q.5,0,.5.211v.094q0,.3-6.34,1.605-.785,0-2.016,3.023L5.039-4.359v.2h.105l.5-.105q.129.5.5.5v.3a.7.7,0,0,0-.5.3H5.438v.094h.609v.211h-.5l.105.094v.105l-.105.094q1.488,0,1.605.5l-.094.105q.5.07.5.3-.891.574-6.035,1.5Q-4.512.879-4.512,1.676a1.534,1.534,0,0,1-.9.9H-5.52l-.6-.5h-.211l-.5.105q0-.258-1-.5l-.3.094-.105-.094V1.57l.105-.3h-.2l-.105.105h-.094l-.105-.105V1.172Q-7.8-1.816-1.2-15.727q0-1.008,1.406-1.207l3.926.105Zm11.555.234h.645a3.384,3.384,0,0,1,3.023,1.723v.434a24.084,24.084,0,0,1-2.051,3.668l-4.746,9.82a7.061,7.061,0,0,1-1.3,1.945L15.082.574h-.105l-.223.539h-.211l.211-.75L13.57,2.309h-.105L13.359,2.2V2.086l.105-.105V1.77h-.105l-.434.973H12.7V2.625l.223-.539L11.191,3.492l-.316-.211.105-.117V2.848l-.328.211-.211-.211q0-1.418,7.77-18.457Q18.68-16.9,19.617-16.9ZM17.637-2.859v.176h-.094v-.176Zm17.6-13.969H36a4.722,4.722,0,0,1,4.055,1.641v.984q0,2.086-1.535,2.086a8.463,8.463,0,0,0-2.4-.328q-8.039,0-11.051,7.652l-.223,1.1v.328q0,1.652,2.191,2.074a16.042,16.042,0,0,0,3.609.328h1.969v.223h-.445v.105q.258,0,.551.434h.105V.129l-1.2.117V.352h.211l-.211.656h.211V1.23h-.211v.105a.383.383,0,0,1,.434.434h.223l-.117-.105V1.559l.117-.117h.656v.223l.105.105-.105.117h-.328v.105l.211.223h.328L33.047,2.1V1.992l.328-.105.328.105q0,.984-7.652.984-4.828,0-6.785-4.7v-1.43q0-5.074,6.891-10.828A15.468,15.468,0,0,1,35.238-16.828ZM32.824-.527h.656V-.3h-.656ZM44.039-17.566q1.582,0,3.41,2.625A11.024,11.024,0,0,1,45.8-11.1l-.984,2.191h.223l6.691-1.758A41.4,41.4,0,0,1,54.9-17.238l1.1-.328q1.219.035,3.07,2.086v.656q0,.785-2.191,4.16a7.758,7.758,0,0,0-.668,2.309l.328.328V-7.8l-1.312.656q0,.328-.434.328v.105L54.9-6.6v.105q-.187,0-.328.656-.281,0-.773,1.207H53.7l-.105-.105h-.117q0,.914-1.09,1.09l.105.117V-3.3a.29.29,0,0,0-.328.328h-.223l-.105.434.105.105v.223h-.105L51.5-2.32v.328H51.4l.105.105v.117A4.928,4.928,0,0,0,50.3.973a2.712,2.712,0,0,1-.656,1.418h-.117l-.105-.105h-.105l-.328.328q0-.223-1.207-.328L47.66,1.84l-.105.117h-.105a1.351,1.351,0,0,1-.328-.879,13.823,13.823,0,0,1,1.863-5.707l.539-1.312h-.105L41.637-3.973q-.258.668-.445.668l-.105-.117h-.117a9.973,9.973,0,0,0-1.535,3.4l-1.418,2.2H37.9V1.957l-.434.328L35.93,1.734a.487.487,0,0,0-.551-.551V.527q0-1.254,2.309-5.59l.105-.551q-.328-.105-.328-.656v-.879q1.828-.949,2.086-1.98l2.3-5.484-.105-.105v-.105l.984-2.191ZM-37.046,10.027h.481a5.848,5.848,0,0,1,5.811,3.619q-.382,3.3-1.1,3.3h-.166A10.462,10.462,0,0,1-35.32,16l-3.138-.315q-8.583,0-14.46,7.072a12.2,12.2,0,0,0-2.523,7.388q0,2.208,3.3,2.208a18.994,18.994,0,0,0,5.661-1.262v-.149h-.166l-4.549.315q0-.432-1.262-1.112L-52.3,30v-.166h-.93v-.315l.93-.149v-.149l-1.245-.166v-.315h.465v-.149h-.78v-.166l.315-.465q-1.112,0-1.112-.315,0-1.046,19.341-4.4,1.81,0,2.673,2.191l.166.481q0,1.627-2.208,3.453,0,1.544-7.853,6.292A14.871,14.871,0,0,1-49.78,37.7h-1.411q-7.056,0-9.446-7.238l-.149-1.411v-.946q0-5.678,8.8-13.68A26.047,26.047,0,0,1-37.046,10.027Zm23.408-.3a.5.5,0,0,0,.564.564v.282h-.432v.149q.714,0,.714.282v.149h-.564q0,.432.847.432v.282h-.432V12h1.71l1.295.714-.149.149V13q.714,0,.714.3,0,.515-5.279,1.129-1.793,0-6.823,1.992l-1.577,3.138h.149a21.409,21.409,0,0,1,4.416-.432l.282.432-.432.149v.133q1.146,0,1.146.282l-.714.3v.133h.282l-.133.432q0,.714,1.129,1.146v.133l-.133.149v.133q.714,0,.714.3v.133q0,.432-8.981,2.274-1.112,0-2.855,4.283l10.26-1.71v.282h.149l.714-.149q.183.714.714.714V29.1a.992.992,0,0,0-.714.432h-.3v.133h.863v.3h-.714l.149.133v.149l-.149.133q2.108,0,2.274.714l-.133.149q.714.1.714.432-1.262.813-8.55,2.125-8.55,1.444-8.55,2.573a2.174,2.174,0,0,1-1.278,1.278h-.149l-.847-.714h-.3l-.714.149q0-.365-1.411-.714l-.432.133-.149-.133v-.149l.149-.432h-.282l-.149.149h-.133l-.149-.149V35.66q1.179-4.233,10.542-23.939,0-1.428,1.992-1.71l5.562.149Zm7.936.332h.913A4.793,4.793,0,0,1-.506,12.5v.614a34.119,34.119,0,0,1-2.905,5.2l-6.724,13.912a10,10,0,0,1-1.843,2.756l-.149-.166h-.149l-.315.764h-.3l.3-1.062-1.677,2.756h-.149l-.149-.149v-.166l.149-.149v-.3h-.149l-.614,1.378H-15.5v-.166l.315-.764-2.457,1.992-.448-.3.149-.166v-.448l-.465.3-.3-.3q0-2.009,11.007-26.147Q-7.031,10.061-5.7,10.061ZM-8.508,29.949V30.2h-.133v-.249ZM8.923,7.869H9.8q3.852,1.411,3.852,3.7-1,1.627-7.985,16.685L4.491,30.331l9.164-.6,1.179.149h.88v.3h-.432v.448h.88v.3l-1.478.73.3.88h.88l1.328,1.345q0,.4-8.716,1.61-3.686.747-10.044,2.523h-.149q-.813,0-2.806-2.374v-.149l.149-.133-.149-.149V33.734q0-.747,1.328-1.776A150.593,150.593,0,0,0,6.848,10.094L6.7,9.646Q7.628,7.869,8.923,7.869ZM26.272,31.228l1.361-1.395a.725.725,0,0,1,.481-.232.849.849,0,0,1,.515.266l1.328,1.428a.832.832,0,0,1,.2.481.8.8,0,0,1-.232.515L28.6,33.751q-.332.332-.481.332a.646.646,0,0,1-.481-.232l-1.461-1.677a.707.707,0,0,1-.166-.432A.753.753,0,0,1,26.272,31.228Zm11.339,0,1.361-1.395a.725.725,0,0,1,.481-.232.849.849,0,0,1,.515.266L41.3,31.294a.832.832,0,0,1,.2.481.8.8,0,0,1-.232.515l-1.328,1.461q-.332.332-.481.332a.646.646,0,0,1-.481-.232l-1.461-1.677a.707.707,0,0,1-.166-.432A.753.753,0,0,1,37.611,31.228Zm11.339,0,1.361-1.395a.725.725,0,0,1,.481-.232.849.849,0,0,1,.515.266l1.328,1.428a.832.832,0,0,1,.2.481.8.8,0,0,1-.232.515l-1.328,1.461q-.332.332-.481.332a.646.646,0,0,1-.481-.232L48.85,32.174a.707.707,0,0,1-.166-.432A.753.753,0,0,1,48.95,31.228Z" transform="matrix(0.966, -0.259, 0.259, 0.966, 84.501, 78.105)" fill="#FFF"/>
    <path id="Pfad_5" data-name="Pfad 5" d="M-53.78-13.245l.167.422h.088l.079-.088h.088l.079.088-.079.079v.088l.167.167a30.029,30.029,0,0,1-3.357,4.271A81.6,81.6,0,0,0-62.666.413q-.36,1.336-1.169,1.336h-.334A3.214,3.214,0,0,1-66.6.668l.167-.756-1.758-9.22-.668-3.1v-.079a1.2,1.2,0,0,1,1-.668,3.5,3.5,0,0,1,2.18.835,2.512,2.512,0,0,1,.844,2.18q.105.026,1,6.029h.088l2-2.593a2.474,2.474,0,0,0,.923-1.178h.088l.079.088h.088l.756-.756.079.079v-.079l-.079-.255.246-.167h.088l.079.422.167-.167-.079-.334h.079l-.079-.255a1.162,1.162,0,0,1,.5-.668h.088l.079.079h.088l.167-.167V-9.9l-.088.088v.079h.088l.923-1.169h.079v.079l-.589.756v.5l.923-1,.088.088h.079v-.167h.088l-.167-.422.079-.088h.088l.079.088h.088l.835-.668.088.079v.088l-.422.413v.088h.167Q-54.105-13.219-53.78-13.245Zm8.534.4a.264.264,0,0,0,.3.3v.149h-.229v.079q.378,0,.378.149v.079h-.3q0,.229.448.229v.149h-.229v.07h.905l.686.378-.079.079v.07q.378,0,.378.158,0,.272-2.795.6a12.5,12.5,0,0,0-3.612,1.055l-.835,1.661h.079a11.334,11.334,0,0,1,2.338-.229l.149.229-.229.079v.07q.606,0,.606.149l-.378.158v.07h.149l-.07.229q0,.378.6.606v.07l-.07.079v.07q.378,0,.378.158v.07q0,.229-4.755,1.2-.589,0-1.512,2.268l5.432-.905v.149h.079l.378-.079q.1.378.378.378v.229a.525.525,0,0,0-.378.229h-.158v.07h.457v.158h-.378l.079.07v.079l-.079.07q1.116,0,1.2.378l-.07.079q.378.053.378.229A18.826,18.826,0,0,1-50.15-.105q-4.526.765-4.526,1.362a1.151,1.151,0,0,1-.677.677h-.079l-.448-.378h-.158l-.378.079q0-.193-.747-.378l-.229.07-.079-.07V1.178l.079-.229h-.149l-.079.079h-.07l-.079-.079V.879q.624-2.241,5.581-12.674,0-.756,1.055-.905l2.944.079Zm6.864-.536h.686q5.124,0,6.047,3.366l.079.466v.229q0,1.011-4.6,3.366A35.252,35.252,0,0,1-35.016.853l.079.079V1l-.079.237.079.686L-35.016,2h-.149q0-.308-.158-.308,0,.229-.149.229h-.158l-.07-.079h-.079q-.114.308-.229.308l-.387-.079-.149.158q-.053-.387-.387-.387a42.219,42.219,0,0,1-2.136-6.583l-3.445,1.151q-.475,1.081-.765,1.222l-.079.387h-.229l.308-.844V-2.9h-.079l-.387.844.158.158q-.29,0-1.151,1.6-.105.009-.457,1-.158,0-.765,1.529h-.079q0-.352-.765-.615l-.149.158q0-.158-.237-.158l-.229.079q-.167-.413-.457-.457V1q0-1.854,4.21-10.257-1.608-1.09-1.608-1.758v-.378q.062-.4,2.83-1.38Q-42.056-13.386-38.382-13.386Zm-2.452,6.047h.158q4.6-1.969,5.581-3.138v-.079l-1.529-.07h-.149q-2.909,0-2.909.686A16.233,16.233,0,0,1-40.834-7.339Zm17.552-6.179h.167a1.714,1.714,0,0,1,.984.571l.079.079h.079l-.079.325.079.984q-.132,1.31-.9,1.31h-.492a20.176,20.176,0,0,0-8.007,2.206v.158h.079q5.941.492,6.539,1.635A1.223,1.223,0,0,1-24.179-5.1q-.22,2.689-.65,2.689A16.058,16.058,0,0,1-28.916-.2Q-32.282.949-38.153,2.417l-.079-.079V2.25l.571-.237V1.846l-.9.167V1.925q0-.185.4-.246V1.521H-38.4V1.354h.167V1.274l-.492-.167.079-.079V.782q-.325,0-.325-.246l-.079.079h-.167V.536l.079-.079V.378H-39.3q0-.167-.246-.167V.132q0-.413,6.618-2.294A28.743,28.743,0,0,0-27.853-4.2Q-34.8-4.658-34.8-5.678a1.725,1.725,0,0,1-.817-1.547,3.827,3.827,0,0,1,.984-2.206Q-28.661-13.518-23.282-13.518ZM-37.907,1.028v.079h.167V1.028Zm17.675-13.7h.483a2.538,2.538,0,0,1,2.268,1.292v.325A18.063,18.063,0,0,1-19.02-8.306L-22.579-.94A5.3,5.3,0,0,1-23.555.519l-.079-.088h-.079l-.167.4h-.158l.158-.562-.888,1.459h-.079l-.079-.079V1.564l.079-.079V1.327h-.079l-.325.729h-.167V1.969l.167-.4-1.3,1.055-.237-.158.079-.088V2.136l-.246.158-.158-.158q0-1.063,5.827-13.843Q-20.936-12.674-20.232-12.674ZM-21.718-2.145v.132h-.07v-.132Zm13.2-10.477h.571A3.541,3.541,0,0,1-4.9-11.391v.738q0,1.564-1.151,1.564a6.347,6.347,0,0,0-1.8-.246q-6.029,0-8.288,5.739l-.167.826v.246q0,1.239,1.644,1.556a12.032,12.032,0,0,0,2.707.246h1.477v.167h-.334v.079q.193,0,.413.325h.079V.1l-.9.088V.264h.158l-.158.492h.158V.923h-.158V1a.287.287,0,0,1,.325.325h.167l-.088-.079V1.169l.088-.088h.492v.167l.079.079-.079.088h-.246v.079l.158.167h.246l-.079-.088V1.494l.246-.079.246.079q0,.738-5.739.738A5.16,5.16,0,0,1-20.5-1.292V-2.364q0-3.806,5.168-8.121A11.6,11.6,0,0,1-8.517-12.621ZM-10.327-.4h.492v.167h-.492Zm8.411-12.779q1.187,0,2.558,1.969A8.268,8.268,0,0,1-.6-8.323L-1.336-6.68h.167L3.85-8a31.047,31.047,0,0,1,2.382-4.931l.826-.246q.914.026,2.3,1.564v.492A10.011,10.011,0,0,1,7.717-8a5.819,5.819,0,0,0-.5,1.731l.246.246v.167l-.984.492q0,.246-.325.246v.079l.079.088v.079q-.141,0-.246.492-.211,0-.58.905H5.326l-.079-.079H5.159q0,.686-.817.817l.079.088v.167a.218.218,0,0,0-.246.246H4.008l-.079.325.079.079v.167H3.929L3.683-1.74v.246H3.6l.079.079v.088A3.7,3.7,0,0,0,2.777.729a2.034,2.034,0,0,1-.492,1.063H2.2l-.079-.079H2.039l-.246.246q0-.167-.905-.246L.8,1.38l-.079.088H.642A1.013,1.013,0,0,1,.4.809a10.367,10.367,0,0,1,1.4-4.28l.4-.984H2.118L-3.718-2.979q-.193.5-.334.5l-.079-.088h-.088A7.48,7.48,0,0,0-5.37-.018L-6.434,1.635h-.088V1.468l-.325.246L-8,1.3A.365.365,0,0,0-8.411.888V.4q0-.94,1.731-4.192L-6.6-4.21q-.246-.079-.246-.492v-.659q1.371-.712,1.564-1.485L-3.56-10.96l-.079-.079v-.079l.738-1.644Zm19.547.325a.264.264,0,0,0,.3.3v.149H17.7v.079q.378,0,.378.149v.079h-.3q0,.229.448.229v.149H18v.07h.905l.686.378-.079.079v.07q.378,0,.378.158,0,.272-2.795.6a12.5,12.5,0,0,0-3.612,1.055l-.835,1.661h.079a11.334,11.334,0,0,1,2.338-.229l.149.229-.229.079v.07q.606,0,.606.149l-.378.158v.07h.149l-.07.229q0,.378.6.606v.07l-.07.079v.07q.378,0,.378.158v.07q0,.229-4.755,1.2-.589,0-1.512,2.268l5.432-.905v.149h.079L15.82-3.2q.1.378.378.378v.229a.525.525,0,0,0-.378.229h-.158v.07h.457v.158h-.378l.079.07v.079l-.079.07q1.116,0,1.2.378l-.07.079q.378.053.378.229A18.826,18.826,0,0,1,12.727-.105Q8.2.659,8.2,1.257a1.151,1.151,0,0,1-.677.677H7.444L7,1.556H6.838l-.378.079q0-.193-.747-.378l-.229.07-.079-.07V1.178L5.484.949H5.335l-.079.079h-.07L5.106.949V.879q.624-2.241,5.581-12.674,0-.756,1.055-.905l2.944.079Zm6.864-.536h.686q5.124,0,6.047,3.366l.079.466v.229q0,1.011-4.6,3.366A35.252,35.252,0,0,1,27.861.853l.079.079V1l-.079.237.079.686L27.861,2h-.149q0-.308-.158-.308,0,.229-.149.229h-.158l-.07-.079H27.1q-.114.308-.229.308l-.387-.079-.149.158q-.053-.387-.387-.387A42.219,42.219,0,0,1,23.81-4.737L20.364-3.586Q19.89-2.5,19.6-2.364l-.079.387h-.229l.308-.844V-2.9h-.079l-.387.844.158.158Q19-1.9,18.141-.3q-.105.009-.457,1-.158,0-.765,1.529H16.84q0-.352-.765-.615l-.149.158q0-.158-.237-.158L15.46,1.7q-.167-.413-.457-.457V1q0-1.854,4.21-10.257Q17.6-10.345,17.6-11.013v-.378q.062-.4,2.83-1.38Q20.821-13.386,24.5-13.386ZM22.043-7.339H22.2q4.6-1.969,5.581-3.138v-.079l-1.529-.07H26.1q-2.909,0-2.909.686A16.233,16.233,0,0,1,22.043-7.339Zm11-5.792h.387a2.283,2.283,0,0,1,2,1.3l.07.308a14.923,14.923,0,0,1-1.687,3.841,14.205,14.205,0,0,0-1.767,6.363v.229a11.1,11.1,0,0,0,3.226-3.146,21.842,21.842,0,0,0,3.454-5.37l.457-.993a.2.2,0,0,0,.229-.229l.079-.079h.158v.308h.07q.211-1.3.387-1.3h.079v.308h.07v-.615h.158v.229a2.558,2.558,0,0,0,.686-1.151h.079a2.9,2.9,0,0,1,.765,2.224q0,5.063-6.513,11.5a5.278,5.278,0,0,1-2.839.773q-2.944,0-3.92-2.153l-.149-.923v-.378a11.393,11.393,0,0,1,1.23-5.37l2-4.685Q32.4-13.131,33.047-13.131Zm21.946-.053h.554a2.07,2.07,0,0,1,1.74.949V-12L54.281-4.254a31.379,31.379,0,0,0-2.215,5.774l-.237.237h-.237l-.316-.237L51.2,1.6h-.4l-.4-.237-.791.079L48.981.729V.176a6.268,6.268,0,0,1,.554-1.661l-2.048-4.9-.633-1.9h-.079L43.611-1.644A9.281,9.281,0,0,0,42.82.967l.079.079v.079q-.132.633-.316.633h-.237l-.791-.475H41.4l-.316.079-.237-.079-.158.158-.079-.079h-.079l-.079.079L39.735.492V.176q0-1.424,3.718-8.692l1.9-4.034a6.407,6.407,0,0,1,2.681-.475q.536,0,1.107.791v.079q0,2.241,2.057,6.636A31.93,31.93,0,0,0,53.648-12q.272-1.028.949-1.028Q54.6-13.166,54.993-13.184Zm11.487.492h.255a3.1,3.1,0,0,1,3.076,1.916q-.2,1.749-.58,1.749h-.088a5.539,5.539,0,0,1-1.749-.5l-1.661-.167A9.59,9.59,0,0,0,58.078-5.95a6.457,6.457,0,0,0-1.336,3.911q0,1.169,1.749,1.169a10.056,10.056,0,0,0,3-.668v-.079H61.4l-2.408.167q0-.229-.668-.589l.079-.079v-.088h-.492v-.167l.492-.079v-.079l-.659-.088v-.167h.246v-.079h-.413v-.088l.167-.246q-.589,0-.589-.167,0-.554,10.239-2.329a1.52,1.52,0,0,1,1.415,1.16l.088.255a2.59,2.59,0,0,1-1.169,1.828q0,.817-4.157,3.331A7.873,7.873,0,0,1,59.739,1.96h-.747q-3.735,0-5-3.832l-.079-.747v-.5q0-3.006,4.658-7.242A13.79,13.79,0,0,1,66.48-12.691Z" transform="matrix(0.966, -0.259, 0.259, 0.966, 76.07, 51.278)" fill="#FFF"/>
  </g>
</svg>
